<?xml version="1.0" standalone="no"?>
<!DOCTYPE svg PUBLIC "-//W3C//DTD SVG 1.1//EN" "http://www.w3.org/Graphics/SVG/1.1/DTD/svg11.dtd" >
<svg xmlns="http://www.w3.org/2000/svg">
<metadata></metadata>
<defs>
<font id="rotissansserifregular" horiz-adv-x="1024" >
<font-face units-per-em="2048" ascent="1638" descent="-410" />
<missing-glyph horiz-adv-x="530" />
<glyph unicode="&#xfb01;" horiz-adv-x="1099" d="M57 858v117h166v135q0 59 15.5 115.5t52.5 99.5t98.5 68.5t151.5 25.5q53 0 92 -5t74 -13v-125q-29 10 -63 18.5t-79 8.5q-59 0 -99 -16.5t-62.5 -45.5t-32 -70t-9.5 -90v-106h279v-117h-279v-858h-139v858h-166zM764 1229v184h184v-184h-184zM786 0v975h140v-975h-140z " />
<glyph unicode="&#xfb02;" horiz-adv-x="1099" d="M57 858v117h166v135q0 59 15.5 115.5t52.5 99.5t98.5 68.5t151.5 25.5q53 0 92 -5t74 -13v-125q-29 10 -63 18.5t-79 8.5q-59 0 -99 -16.5t-62.5 -45.5t-32 -70t-9.5 -90v-106h279v-117h-279v-858h-139v858h-166zM786 0v1413h140v-1413h-140z" />
<glyph horiz-adv-x="2048" />
<glyph horiz-adv-x="2048" />
<glyph unicode="&#xd;" horiz-adv-x="530" />
<glyph unicode=" "  horiz-adv-x="530" />
<glyph unicode="&#x09;" horiz-adv-x="530" />
<glyph unicode="&#xa0;" horiz-adv-x="530" />
<glyph unicode="!" horiz-adv-x="569" d="M260 0v201h201v-201h-201zM276 1413h168l-14 -1030h-139z" />
<glyph unicode="&#x22;" horiz-adv-x="720" d="M117 1413h186l-33 -440h-118zM418 1413h186l-35 -440h-118z" />
<glyph unicode="#" horiz-adv-x="1175" d="M119 438l28 113h193l49 194h-192l30 113h191l114 440h134l-115 -440h172l117 440h133l-117 -440h203l-31 -113h-201l-51 -194h205l-31 -113h-202l-115 -438h-131l112 438h-170l-112 -438h-133l112 438h-192zM473 551h172l49 194h-172z" />
<glyph unicode="$" horiz-adv-x="1099" d="M119 276h182q0 -74 51 -132t146 -72v581q-47 14 -109.5 31.5t-118 56.5t-94.5 106.5t-39 182.5q0 88 39 152.5t94.5 105.5t118 60.5t109.5 19.5v152h92v-152q74 0 140.5 -24.5t117.5 -66.5t82 -95.5t31 -108.5h-183q0 82 -52 135.5t-136 65.5v-541q49 -16 116.5 -38.5 t130 -64.5t105.5 -108.5t43 -171.5q0 -111 -40 -182.5t-99.5 -113.5t-129 -58t-126.5 -19v-172h-92v172q-96 4 -164 29t-113 65t-69.5 93t-32.5 112zM311 1018q0 -61 17.5 -104.5t45 -72t60.5 -47t64 -28.5v508q-37 -4 -70 -23.5t-59.5 -52.5t-42 -79t-15.5 -101zM590 72 q37 2 76 19.5t70.5 50t53 80.5t21.5 114q0 68 -22.5 116t-56.5 80.5t-72.5 53t-69.5 32.5v-546z" />
<glyph unicode="%" horiz-adv-x="1669" d="M57 864q0 86 13.5 168t47.5 146.5t93 103.5t149 39t149.5 -39t93.5 -103.5t47.5 -146.5t13.5 -168t-13.5 -169t-47.5 -147.5t-93.5 -103t-149.5 -38.5t-149 38.5t-93 103t-47.5 147.5t-13.5 169zM180 864q0 -68 7.5 -132t26.5 -115.5t54 -82t92 -30.5t93 30.5t55.5 82 t26 116t6.5 131.5q0 68 -6.5 132.5t-26 114.5t-55 81t-93.5 31q-57 0 -92 -31t-54 -81t-26.5 -114.5t-7.5 -132.5zM565 0l426 1298h115l-426 -1298h-115zM1006 436q0 86 13 168t48 146.5t94.5 103.5t149.5 39t149.5 -39t93 -103.5t47 -146.5t13.5 -168t-13.5 -169 t-47 -147.5t-93 -103.5t-149.5 -39t-149.5 39t-94.5 103.5t-48 147.5t-13 169zM1128 436q0 -68 6.5 -132t27 -115.5t55 -82t94.5 -30.5q57 0 93 30.5t55.5 82t25.5 116t6 131.5q0 68 -6 132.5t-25.5 114.5t-55.5 81t-93 31q-59 0 -94 -31t-55.5 -81t-27 -114.5t-6.5 -132.5z " />
<glyph unicode="&#x26;" horiz-adv-x="1327" d="M111 367q0 94 24.5 157.5t61 104.5t78.5 62.5t77 31.5v4q-37 12 -76.5 31.5t-73.5 53.5t-55.5 86t-21.5 126q0 92 36 156.5t94 105.5t132 59.5t150 18.5q53 0 105 -9t103 -24v-125q-41 16 -92 28.5t-106 12.5q-41 0 -85 -11t-80 -38t-59.5 -71t-23.5 -109 q0 -123 73.5 -182.5t209.5 -59.5h348v357l139 88v-445h242v-117h-242v-403q0 -29 5 -58.5t21.5 -52t45 -37t76.5 -14.5q35 0 53 3t41 9v-114q-35 -6 -68 -10.5t-69 -4.5q-84 0 -132.5 21.5t-73 56.5t-31.5 78t-7 86v440h-375q-76 0 -127 -23.5t-83 -62t-46 -89t-14 -103.5 q0 -74 23.5 -128t62.5 -89t89 -52.5t103 -17.5q66 0 105 9.5t84 25.5v-125q-47 -12 -86 -19.5t-111 -7.5q-203 0 -323.5 97.5t-120.5 292.5z" />
<glyph unicode="'" horiz-adv-x="417" d="M115 1413h186l-33 -440h-118z" />
<glyph unicode="(" horiz-adv-x="569" d="M143 639q0 96 2 197.5t12.5 200t33 187.5t63.5 160.5t104.5 121.5t155.5 67v-92q-76 -37 -118 -125t-61.5 -204t-22.5 -250t-3 -263t3 -261t22.5 -248t60.5 -204t119 -127v-92q-139 31 -214 127t-109.5 227.5t-41 283t-6.5 294.5z" />
<glyph unicode=")" horiz-adv-x="569" d="M55 -201q76 37 118 125t61.5 204t22.5 249t3 262t-3 261t-22.5 249t-61.5 205t-118 127v92q137 -31 213 -127t111 -227.5t41 -284t6 -295.5q0 -96 -2 -196.5t-12.5 -199t-33 -187.5t-63.5 -160.5t-104.5 -121.5t-155.5 -67v92z" />
<glyph unicode="*" horiz-adv-x="645" d="M20 1096v100h140l82 -6l-45 67l-70 125l90 54l72 -125l35 -74l34 74l72 125l92 -54l-71 -125l-45 -67l79 6h140v-100h-140l-79 6l45 -68l71 -123l-92 -53l-72 123l-34 70l-33 -70l-74 -123l-90 53l72 123l43 68l-82 -6h-140z" />
<glyph unicode="+" horiz-adv-x="1175" d="M115 436v125h403v402h139v-402h404v-125h-404v-436h-139v436h-403z" />
<glyph unicode="," horiz-adv-x="417" d="M113 -252l26 457h183l-72 -457h-137z" />
<glyph unicode="-" horiz-adv-x="833" d="M106 440v140h623v-140h-623z" />
<glyph unicode="." horiz-adv-x="417" d="M106 0v205h205v-205h-205z" />
<glyph unicode="/" horiz-adv-x="606" d="M37 -279l387 1838h147l-389 -1838h-145z" />
<glyph unicode="0" d="M70 649q0 125 19.5 246t69.5 216t135 152.5t218 57.5q131 0 217 -57.5t136 -152.5t69.5 -216t19.5 -246t-19.5 -245.5t-69.5 -215t-136 -153t-217 -58.5q-133 0 -218 58.5t-135 153t-69.5 215t-19.5 245.5zM229 649q0 -100 10.5 -199.5t41 -178t86 -128t145.5 -49.5 q92 0 147.5 49.5t85 128t40 178t10.5 199.5t-10.5 199.5t-40 178.5t-85 128t-147.5 49q-90 0 -145.5 -49t-86 -128t-41 -178.5t-10.5 -199.5z" />
<glyph unicode="1" d="M258 975v155l268 168h131v-1298h-153v1141z" />
<glyph unicode="2" d="M113 0v137q33 27 90 78t123.5 119.5t135 148.5t125 164t91.5 169t35 161q0 45 -12.5 86t-39 72.5t-67.5 50t-96 18.5q-68 0 -110 -22.5t-64.5 -54t-30.5 -65.5t-8 -56h-172q2 39 18 93t59 103t119 84t199 35q80 0 146.5 -25.5t115.5 -71.5t75.5 -114t26.5 -149 q0 -88 -33.5 -176.5t-86 -171.5t-118 -157.5t-128 -136t-114.5 -107.5t-81 -73h580v-139h-778z" />
<glyph unicode="3" d="M84 270h178q4 -25 13.5 -55.5t33 -57t63.5 -45t103 -18.5q125 0 182.5 61.5t57.5 190.5q0 96 -29 150.5t-72 82t-94 33.5t-96 6v117q150 0 209 61.5t59 176.5q0 119 -53 175t-145 56q-68 0 -109 -18.5t-64.5 -44t-32.5 -55t-9 -52.5h-173q0 43 20.5 93.5t65 93.5 t116 71.5t175.5 28.5q80 0 147.5 -22.5t117 -66.5t77 -108.5t27.5 -148.5q0 -72 -22.5 -125t-55.5 -89t-69.5 -55.5t-63.5 -23.5v-4q41 -10 83 -29.5t76 -59.5t54 -102.5t20 -154.5q0 -174 -105 -264.5t-286 -90.5q-115 0 -189.5 29t-119.5 72t-65.5 94t-24.5 98z" />
<glyph unicode="4" d="M82 365v124l522 809h164v-794h225v-139h-225v-365h-154v365h-532zM233 504h381v616h-4z" />
<glyph unicode="5" d="M127 270h182q0 -25 11.5 -54.5t36 -57t65.5 -46t100 -18.5q125 0 193.5 71t68.5 212q0 82 -21.5 138t-56 91t-77.5 49.5t-86 14.5q-51 0 -86 -11.5t-58.5 -27t-38 -32.5t-22.5 -32h-156l35 731h643v-139h-502l-18 -436q35 23 91 43t124 20q100 0 174 -32.5t121 -88 t70.5 -131t23.5 -161.5q0 -98 -32.5 -172t-90 -124t-133.5 -75t-164 -25q-123 0 -199.5 33t-120.5 80t-60.5 96.5t-16.5 83.5z" />
<glyph unicode="6" d="M129 647q0 133 17.5 255t65.5 215t134 148.5t225 55.5q111 0 180.5 -34t110.5 -80t56.5 -95t15.5 -80h-178q0 18 -8.5 47t-30 56.5t-58 48t-94.5 20.5q-86 0 -140 -46t-84 -116.5t-41 -155.5t-11 -161v-96h4q16 25 42.5 52.5t64.5 50t89.5 36.5t114.5 14q94 0 162 -32.5 t112 -88t64.5 -129t20.5 -155.5q0 -92 -30 -167t-82 -126t-125 -79t-159 -28q-145 0 -231 55.5t-132 148.5t-60.5 214t-14.5 252zM313 379q0 -123 65.5 -204t188.5 -81q70 0 115 22.5t71.5 61.5t38 90t11.5 109q0 137 -55.5 213t-184.5 76q-119 0 -184.5 -80t-65.5 -207z " />
<glyph unicode="7" d="M133 1159v139h764v-131l-494 -1167h-170l496 1159h-596z" />
<glyph unicode="8" d="M106 348q0 86 25 143.5t61.5 94.5t78.5 55t79 27v4q-37 12 -75.5 31.5t-70.5 55.5t-51.5 91t-19.5 139q0 147 99.5 239.5t283.5 92.5q82 0 151.5 -22.5t120 -64.5t79 -102.5t28.5 -138.5q0 -84 -22.5 -141t-55.5 -96t-70.5 -58.5t-70.5 -25.5v-4q33 -6 75 -25.5 t79.5 -57.5t63.5 -97.5t26 -145.5q0 -188 -110 -276.5t-298 -88.5q-186 0 -296 88.5t-110 282.5zM266 358q0 -57 13.5 -105t42 -84t76.5 -55.5t120 -19.5q127 0 184.5 63.5t57.5 198.5q0 115 -59.5 185.5t-188.5 70.5q-117 0 -181.5 -66.5t-64.5 -187.5zM293 963 q0 -47 11 -89.5t38 -75t71 -51t109 -18.5q98 0 155.5 60.5t57.5 171.5q0 123 -58.5 183t-164.5 60q-104 0 -161.5 -65t-57.5 -176z" />
<glyph unicode="9" d="M80 924q0 92 29.5 165.5t82 125t125 79t158.5 27.5q143 0 230.5 -55.5t132.5 -147.5t59 -214t14 -253q0 -133 -17 -255t-64.5 -215t-134.5 -148.5t-224 -55.5q-111 0 -181.5 34t-111.5 81t-56.5 96.5t-15.5 79.5h183q0 -18 8 -48t28.5 -57.5t56.5 -48t93 -20.5 q86 0 140.5 46t85 117t41 156t10.5 162v95h-4q-16 -25 -44 -52.5t-66 -50t-88 -37t-112 -14.5q-94 0 -161.5 33t-111.5 88t-64.5 129t-20.5 158zM240 924q0 -139 55 -215t182 -76q121 0 186.5 80t65.5 209q0 61 -16.5 112t-49 89t-79.5 59.5t-109 21.5q-68 0 -114 -22.5 t-72.5 -61.5t-37.5 -90t-11 -106z" />
<glyph unicode=":" horiz-adv-x="530" d="M238 0v205h204v-205h-204zM238 770v205h204v-205h-204z" />
<glyph unicode=";" horiz-adv-x="530" d="M229 -252l27 457h180l-71 -457h-136zM242 770v205h204v-205h-204z" />
<glyph unicode="&#x3c;" horiz-adv-x="1175" d="M115 418v127l946 418v-129l-807 -353l807 -352v-129z" />
<glyph unicode="=" horiz-adv-x="1175" d="M115 287v125h946v-125h-946zM115 586v125h946v-125h-946z" />
<glyph unicode="&#x3e;" horiz-adv-x="1175" d="M115 0v129l809 352l-809 353v129l946 -418v-127z" />
<glyph unicode="?" horiz-adv-x="833" d="M139 1235v154q29 10 104.5 28.5t170.5 18.5q82 0 152.5 -20.5t122.5 -60.5t82 -98.5t30 -136.5q0 -59 -17.5 -106t-44 -85t-55.5 -66.5t-49 -53.5l-103 -117q-35 -39 -57 -64.5t-34.5 -50t-16.5 -55t-4 -80.5v-61h-146v94q0 68 4.5 103.5t16.5 61.5t36.5 50.5t67.5 71.5 l119 133q20 25 43 48.5t39 49t27.5 55t11.5 64.5q0 92 -65.5 142.5t-165.5 50.5q-43 0 -87.5 -9.5t-81 -21.5t-64.5 -23.5t-36 -15.5zM246 0v199h200v-199h-200z" />
<glyph unicode="@" horiz-adv-x="2048" d="M195 406q0 186 74.5 352t200.5 291t293 197.5t353 72.5q158 0 293 -49t233.5 -138.5t154.5 -211t56 -265.5q0 -135 -49 -254.5t-131 -209t-185.5 -140.5t-209.5 -51q-53 0 -82 15.5t-42 38t-17 47t-7 44.5q-12 -16 -34.5 -38.5t-55 -43t-76.5 -36t-100 -15.5 q-55 0 -105 18.5t-87 55.5t-58.5 92t-21.5 127t20.5 149.5t57.5 152.5t86 141.5t108.5 116.5t125 80t132.5 30q63 0 106.5 -18.5t70 -43t40 -50t21.5 -40.5l45 111h178l-172 -424q-16 -43 -37.5 -96.5t-41 -103.5t-33 -90t-13.5 -58q0 -25 19.5 -40.5t42.5 -15.5 q61 0 132.5 41t134 115t103.5 174.5t41 218.5q0 129 -50 232.5t-134 176.5t-193.5 111.5t-228.5 38.5q-182 0 -332.5 -73.5t-258 -190t-167 -260t-59.5 -282.5q0 -127 50 -234.5t142.5 -185.5t224.5 -123t296 -45q135 0 240.5 29.5t181 66.5t120.5 70.5t56 42.5l55 -47 q-12 -16 -62.5 -57.5t-135.5 -85.5t-201.5 -77.5t-262.5 -33.5q-182 0 -336.5 50t-267 139t-177 214t-64.5 275zM756 233q0 -74 40 -105.5t101 -31.5t114.5 42t97.5 107.5t79 144.5t58.5 152.5t35.5 134t12 87.5q0 47 -32.5 89t-94.5 42q-49 0 -99 -36t-96 -93t-85 -129 t-69 -145.5t-46 -141.5t-16 -117z" />
<glyph unicode="A" horiz-adv-x="1138" d="M18 0l451 1413h195l456 -1413h-159l-142 436h-504l-137 -436h-160zM358 569h418l-207 699h-4z" />
<glyph unicode="B" horiz-adv-x="1099" d="M174 0v1413h375q86 0 156.5 -22.5t121 -65.5t79 -108.5t28.5 -151.5q0 -90 -27.5 -148.5t-62.5 -93.5t-70 -51t-47 -20v-4q41 -10 88 -30t88 -60t68.5 -106.5t27.5 -168.5q0 -111 -37.5 -183.5t-100 -117.5t-144.5 -63.5t-168 -18.5h-375zM334 133h184q31 0 84 5 t106.5 31t92.5 80t39 150q0 66 -23.5 116t-63.5 85t-96.5 52.5t-119.5 17.5h-203v-537zM334 803h137q33 0 85 4t100.5 28.5t83 76t34.5 143.5q0 78 -28.5 123t-70.5 67.5t-91 28.5t-90 6h-160v-477z" />
<glyph unicode="C" horiz-adv-x="1099" d="M104 733q0 137 27 264t88.5 224.5t163.5 156t254 58.5q106 0 188 -32t137.5 -86t84 -129t28.5 -161h-180q0 119 -66.5 197t-191.5 78q-113 0 -182.5 -52.5t-108.5 -135.5t-53 -186.5t-14 -203.5q0 -59 6 -128t22.5 -136.5t45 -131t73.5 -112.5t109.5 -77.5t150.5 -28.5 q68 0 122 13t96 32.5t72 39t46 31.5v-166q-23 -10 -54.5 -23t-76.5 -27.5t-104.5 -24t-139.5 -9.5q-160 0 -265.5 70t-166.5 179.5t-86 243.5t-25 263z" />
<glyph unicode="D" horiz-adv-x="1175" d="M174 0v1413h318q160 0 269 -47t179 -136t100.5 -220t30.5 -299q0 -236 -51 -376t-138 -215t-202 -97.5t-240 -22.5h-266zM334 133h108q102 0 186.5 20.5t143.5 82t92 175t33 298.5q0 190 -35 303.5t-98.5 173t-149.5 77t-190 17.5h-90v-1147z" />
<glyph unicode="E" horiz-adv-x="948" d="M174 0v1413h684v-133h-524v-473h500v-133h-500v-541h543v-133h-703z" />
<glyph unicode="F" horiz-adv-x="872" d="M174 0v1413h684v-133h-524v-473h500v-133h-500v-674h-160z" />
<glyph unicode="G" horiz-adv-x="1214" d="M104 754q0 135 28 259t90.5 217t162.5 149.5t246 56.5q104 0 189 -31t143.5 -85t90 -129t31.5 -163h-180q0 47 -14 96.5t-46 89t-84 64.5t-128 25q-109 0 -177.5 -50.5t-107.5 -129.5t-54 -176t-15 -193q0 -102 12 -216t52 -209.5t114.5 -156.5t199.5 -61q53 0 97.5 9 t77 21.5t54 25.5t32.5 21v478h-324v133h483v-686q-12 -12 -47 -35t-87 -45.5t-121.5 -39t-151.5 -16.5q-168 0 -276.5 63.5t-173 171t-90.5 248t-26 294.5z" />
<glyph unicode="H" horiz-adv-x="1251" d="M174 0v1413h160v-612h584v612h159v-1413h-159v668h-584v-668h-160z" />
<glyph unicode="I" horiz-adv-x="530" d="M184 0v1413h160v-1413h-160z" />
<glyph unicode="J" horiz-adv-x="720" d="M0 0v145q35 -12 86 -23t100 -11q25 0 63 5t73.5 26.5t60.5 63.5t25 118v1089h159v-1106q0 -63 -14 -122.5t-57 -105.5t-120 -74t-200 -28q-59 0 -96 6.5t-80 16.5z" />
<glyph unicode="K" horiz-adv-x="1062" d="M174 0v1413h160v-641h4l496 641h186l-528 -678l571 -735h-189l-536 692h-4v-692h-160z" />
<glyph unicode="L" horiz-adv-x="833" d="M174 0v1413h160v-1280h506v-133h-666z" />
<glyph unicode="M" horiz-adv-x="1630" d="M174 0v1413h240l401 -1202h4l402 1202h237v-1413h-143v1243h-4l-416 -1243h-158l-415 1243h-5v-1243h-143z" />
<glyph unicode="N" horiz-adv-x="1290" d="M174 0v1413h205l582 -1194h4v1194h151v-1413h-205l-581 1190h-4v-1190h-152z" />
<glyph unicode="O" horiz-adv-x="1214" d="M104 709q0 135 21.5 265t78 232.5t155 166t249.5 63.5q152 0 249 -63.5t153.5 -166t78 -232.5t21.5 -265q0 -133 -21.5 -264.5t-78 -235t-153.5 -168t-249 -64.5t-250 64.5t-154.5 168t-78 234.5t-21.5 265zM279 711q0 -96 11 -202t47 -194t100.5 -146t170.5 -58t171 58 t99.5 146t46 193.5t11.5 202.5q0 96 -11.5 200.5t-46 191.5t-99 143.5t-171.5 56.5q-106 0 -170.5 -56.5t-100.5 -143.5t-47 -191.5t-11 -200.5z" />
<glyph unicode="P" horiz-adv-x="985" d="M174 0v1413h328q27 0 70.5 -2t94 -13.5t100.5 -35t91 -67.5t66.5 -110.5t25.5 -162.5q0 -106 -33.5 -181t-93 -121t-141.5 -67.5t-180 -21.5h-168v-631h-160zM334 764h172q152 0 218.5 66.5t66.5 189.5q0 98 -35 150.5t-84 77t-105.5 28.5t-99.5 4h-133v-516z" />
<glyph unicode="Q" horiz-adv-x="1251" d="M104 709q0 135 23 265t81 232.5t158.5 166t258.5 63.5q152 0 249 -63.5t153 -166t77.5 -232.5t21.5 -265q0 -127 -16 -226.5t-43 -172t-60.5 -120t-68.5 -67.5l4 -4l291 18v-137h-617q-152 0 -251 66.5t-157 170t-81 229.5t-23 243zM279 711q0 -86 12 -187.5t49 -187.5 t102.5 -144.5t171.5 -58.5q117 0 183.5 51.5t101.5 134t44 185t9 207.5q0 96 -11 200.5t-46 191.5t-99.5 143.5t-170.5 56.5q-113 0 -180.5 -56.5t-104.5 -143.5t-49 -191.5t-12 -200.5z" />
<glyph unicode="R" horiz-adv-x="1099" d="M174 0v1413h350q25 0 67 -2t92 -13.5t102.5 -34t94.5 -62t68.5 -99t26.5 -145.5q0 -96 -26.5 -158.5t-67.5 -101.5t-92.5 -60.5t-100.5 -34.5v-4q74 -18 116 -47.5t66.5 -68.5t37 -88.5t24.5 -106.5l82 -387h-160l-70 326q-16 76 -34.5 133t-51 95t-84 56.5t-133.5 18.5 h-147v-629h-160zM334 762h88q72 0 142.5 10t125.5 41t90 85t35 142q0 90 -32.5 138.5t-85 71t-117 26.5t-127.5 4h-119v-518z" />
<glyph unicode="S" horiz-adv-x="985" d="M80 1073q0 92 35 159.5t95 113t143 68t182 22.5q102 0 180 -14.5t114 -22.5v-158q-12 6 -40.5 16.5t-69.5 20.5t-91 17.5t-108 7.5q-123 0 -194.5 -58.5t-71.5 -157.5q0 -47 21.5 -83.5t55.5 -66.5t76 -54.5t82 -46.5l132 -72q53 -31 106 -63.5t96 -77.5t70 -104.5 t27 -143.5q0 -111 -41 -186.5t-110 -123t-159 -68t-188 -20.5q-57 0 -109.5 5.5t-96.5 13.5t-74.5 14t-45.5 10v164q12 -4 43 -16t76 -24.5t102.5 -22.5t122.5 -10q66 0 121 15t96 46t64.5 76t23.5 104t-20 102.5t-53 75t-76 57t-86 50.5l-125 70q-49 27 -103.5 57.5 t-98.5 72.5t-73.5 99t-29.5 137z" />
<glyph unicode="T" horiz-adv-x="833" d="M0 1280v133h836v-133h-338v-1280h-160v1280h-338z" />
<glyph unicode="U" horiz-adv-x="1214" d="M162 455v958h160v-928q0 -59 6 -125.5t32.5 -122t83 -91t156.5 -35.5q111 0 170 35.5t87 91t32 122t4 125.5v928h160v-958q0 -70 -11.5 -153t-56.5 -155.5t-137 -121t-254 -48.5q-145 0 -230 48.5t-130.5 121t-58.5 155.5t-13 153z" />
<glyph unicode="V" horiz-adv-x="1062" d="M-35 1413h164l397 -1239h4l404 1239h164l-471 -1413h-201z" />
<glyph unicode="W" horiz-adv-x="1705" d="M76 1413h143l215 -1212h4l332 1212h168l330 -1212h4l217 1212h143l-250 -1413h-196l-328 1200h-4l-332 -1200h-194z" />
<glyph unicode="X" horiz-adv-x="1062" d="M0 0l444 741l-401 672h174l315 -528l312 528h174l-400 -672l445 -741h-174l-357 594l-358 -594h-174z" />
<glyph unicode="Y" d="M-10 1413h174l346 -600l352 600h174l-446 -762v-651h-160v651z" />
<glyph unicode="Z" horiz-adv-x="985" d="M49 0v137l680 1143h-645v133h821v-137l-678 -1143h707v-133h-885z" />
<glyph unicode="[" horiz-adv-x="606" d="M201 -279v1838h370v-121h-219v-1596h219v-121h-370z" />
<glyph unicode="\" horiz-adv-x="606" d="M37 1559h145l389 -1838h-145z" />
<glyph unicode="]" horiz-adv-x="606" d="M37 -158h219v1596h-219v121h371v-1838h-371v121z" />
<glyph unicode="^" horiz-adv-x="757" d="M123 1090l196 323h123l195 -323h-125l-131 215l-133 -215h-125z" />
<glyph unicode="_" d="M0 -154h1024v-102h-1024v102z" />
<glyph unicode="`" horiz-adv-x="614" d="M104 1419h181l86 -274h-129z" />
<glyph unicode="a" horiz-adv-x="948" d="M86 250q0 86 49 143.5t120 93t151.5 51t144.5 15.5q27 0 49.5 1t46.5 5v45t-1 54.5t-2 51t-3 35.5q-8 41 -26.5 67t-43 41t-53.5 21.5t-55 6.5q-59 0 -96 -13.5t-58.5 -36t-31 -50t-13.5 -56.5h-155q0 45 17 94t58 88t107.5 64.5t167.5 25.5q113 0 178 -31.5t99 -78.5 t42 -102.5t8 -100.5v-684h-135v129h-4q-10 -18 -32.5 -44t-59.5 -49.5t-88 -41t-119 -17.5q-121 0 -191.5 71t-70.5 202zM246 236q0 -70 42 -106t95 -36q66 0 131.5 40t95.5 112q8 20 15.5 37.5t12.5 38t7 49t2 71.5h-82q-39 0 -93 -9t-104.5 -31.5t-86 -63.5t-35.5 -102z " />
<glyph unicode="b" horiz-adv-x="985" d="M137 401v1012h139v-600h5q8 27 27.5 58.5t51 59t77.5 47t108 19.5q100 0 167.5 -46t107.5 -119.5t56.5 -167t16.5 -187.5q0 -104 -21.5 -195.5t-69.5 -159t-122 -106.5t-178 -39q-131 0 -204 48.5t-108.5 116t-44 140t-8.5 119.5zM276 449q0 -43 6.5 -103.5t28 -116 t65.5 -95.5t122 -40q66 0 110.5 33t72.5 87t40 124t12 143q0 70 -11 141.5t-35.5 129t-65.5 93.5t-103 36q-66 0 -112 -41t-74.5 -103.5t-42 -139t-13.5 -148.5z" />
<glyph unicode="c" horiz-adv-x="872" d="M94 510q0 111 22.5 200t71 153.5t124 99t180.5 34.5q98 0 161.5 -27.5t102.5 -73.5t54 -103.5t15 -114.5h-166q0 39 -9 76t-28.5 64.5t-53 45t-83.5 17.5q-66 0 -110.5 -33t-71.5 -82t-38 -109.5t-11 -115.5q0 -70 15.5 -149t57.5 -144.5t117.5 -109.5t196.5 -44 q27 0 72 3t86 18v-111q-47 -14 -91 -20.5t-112 -6.5q-233 0 -367.5 134.5t-134.5 398.5z" />
<glyph unicode="d" horiz-adv-x="985" d="M92 479q0 98 18.5 191.5t58.5 166t102.5 116.5t152.5 44q63 0 108.5 -18t75 -46t46 -59.5t26.5 -58.5h4v598h139v-1413h-139v166h-4q-8 -27 -26.5 -59.5t-49.5 -61.5t-76 -48.5t-102 -19.5q-88 0 -151.5 35t-103.5 100.5t-59.5 157.5t-19.5 209zM252 453q0 -47 6 -108.5 t26.5 -117t60.5 -94.5t110 -39q59 0 103 37t71.5 94.5t41 126t13.5 131.5q0 82 -14.5 154t-43 126t-70.5 86t-97 32q-61 0 -102.5 -38t-64 -98.5t-31.5 -137t-9 -154.5z" />
<glyph unicode="e" horiz-adv-x="909" d="M98 520q0 109 22.5 197t70 150.5t119 96t169.5 33.5q86 0 149.5 -27.5t106.5 -77.5t63.5 -117.5t20.5 -147.5v-47h-561v-58q0 -55 14.5 -129t53.5 -140.5t106.5 -112.5t171.5 -46q41 0 69.5 3t50 7.5t39 8.5t34.5 8v-115q-92 -29 -224 -29q-227 0 -351 135.5t-124 407.5z M268 696h391q0 25 -9 56.5t-30.5 60.5t-57.5 48.5t-89 19.5q-55 0 -92 -19.5t-60.5 -48.5t-36 -60.5t-16.5 -56.5z" />
<glyph unicode="f" horiz-adv-x="645" d="M57 858v117h164v135q0 59 15.5 115.5t52.5 99.5t98.5 68.5t153.5 25.5q53 0 92 -5t74 -13v-125q-29 10 -63 18.5t-79 8.5q-61 0 -100 -16.5t-62.5 -45.5t-33 -70t-9.5 -90v-106h281v-117h-281v-858h-139v858h-164z" />
<glyph unicode="g" horiz-adv-x="985" d="M92 481q0 98 18.5 190.5t58.5 165t103.5 116.5t153.5 44q61 0 106.5 -19.5t76 -48t48 -60t23.5 -54.5h4v160h139v-977q0 -209 -101 -316.5t-312 -107.5q-115 0 -177.5 14.5t-87.5 18.5v141q6 -2 25.5 -11t51.5 -19.5t75 -18.5t92 -8q94 0 152.5 25.5t90.5 70.5t42 103.5 t10 123.5v172h-4q-8 -25 -25.5 -56.5t-48.5 -61t-76 -49t-108 -19.5q-96 0 -159.5 41t-101.5 108.5t-53.5 154.5t-15.5 177zM252 479q0 -55 8 -119.5t29.5 -118t60.5 -89t101 -35.5q63 0 107 38t71.5 95t41 125.5t13.5 130.5q0 57 -12.5 122.5t-40 122t-71.5 93.5t-105 37 q-55 0 -94 -34t-63 -89.5t-35 -128t-11 -150.5z" />
<glyph unicode="h" d="M164 0v1413h139v-663h4q10 31 28.5 72.5t52.5 80.5t88 66.5t136 27.5q61 0 108.5 -24.5t79 -65.5t47 -95t15.5 -116v-696h-139v541q0 63 -2 120.5t-15.5 101.5t-43 69.5t-82.5 25.5q-70 0 -121 -47t-86 -115.5t-52.5 -148.5t-17.5 -146v-401h-139z" />
<glyph unicode="i" horiz-adv-x="493" d="M154 1229v184h184v-184h-184zM176 0v975h139v-975h-139z" />
<glyph unicode="j" horiz-adv-x="493" d="M-86 -297q27 -8 63 -8q104 0 158.5 51t54.5 182v1047h140v-1075q0 -88 -30 -149.5t-81 -99.5t-118.5 -55.5t-143.5 -17.5h-21.5t-21.5 2v123zM166 1229v184h184v-184h-184z" />
<glyph unicode="k" horiz-adv-x="872" d="M164 0v1413h139v-850h4l338 412h170l-350 -432l393 -543h-172l-379 520h-4v-520h-139z" />
<glyph unicode="l" horiz-adv-x="493" d="M176 0v1413h139v-1413h-139z" />
<glyph unicode="m" horiz-adv-x="1517" d="M162 0v975h139v-225h4q8 31 24.5 72.5t47.5 80.5t79 66.5t122 27.5q123 0 180 -62.5t65 -160.5h4q8 27 29 66t53.5 73.5t80.5 59t114 24.5q61 0 108.5 -24.5t79 -65.5t47 -95t15.5 -116v-696h-140v541q0 63 -2 120.5t-15 101.5t-43 69.5t-83 25.5q-61 0 -107 -47 t-76 -115.5t-45.5 -148.5t-15.5 -146v-401h-139v541q0 63 -2 120.5t-15.5 101.5t-43 69.5t-82.5 25.5q-61 0 -106.5 -47t-76 -115.5t-46 -148.5t-15.5 -146v-401h-139z" />
<glyph unicode="n" d="M164 0v975h139v-225h4q10 31 28.5 72.5t52.5 80.5t88 66.5t136 27.5q61 0 108.5 -24.5t79 -65.5t47 -95t15.5 -116v-696h-139v541q0 63 -2 120.5t-15.5 101.5t-43 69.5t-82.5 25.5q-70 0 -121 -47t-86 -115.5t-52.5 -148.5t-17.5 -146v-401h-139z" />
<glyph unicode="o" horiz-adv-x="985" d="M94 485q0 106 21.5 199.5t69.5 163.5t123 109.5t184 39.5t184.5 -39.5t123.5 -109.5t70.5 -163t22.5 -200q0 -106 -22.5 -199t-70.5 -162t-123.5 -108t-184.5 -39t-184 39t-123 108t-69.5 162t-21.5 199zM254 487q0 -186 59.5 -289.5t178.5 -103.5q121 0 181 103.5 t60 289.5q0 184 -60.5 289t-180.5 105q-119 0 -178.5 -105t-59.5 -289z" />
<glyph unicode="p" horiz-adv-x="985" d="M164 -438v1413h139v-166h4q8 27 26.5 59.5t49.5 61t75 48t103 19.5q88 0 151.5 -34.5t103.5 -100t59.5 -158t19.5 -208.5q0 -98 -18.5 -191.5t-58.5 -166t-102.5 -117t-152.5 -44.5q-63 0 -108 18.5t-75 46.5t-47.5 59.5t-25.5 58.5h-4v-598h-139zM303 492 q0 -82 14.5 -154t43 -126t70.5 -86t97 -32q61 0 102.5 38t64 98.5t31.5 137t9 154.5q0 47 -6 108.5t-26.5 117t-61.5 94.5t-109 39q-61 0 -104 -37t-70.5 -94.5t-41 -126t-13.5 -131.5z" />
<glyph unicode="q" horiz-adv-x="985" d="M94 496q0 117 18.5 209t58.5 157.5t103.5 100t151.5 34.5q57 0 102 -19.5t76 -48t49.5 -61t26.5 -59.5h4v166h139v-1413h-139v598h-4q-8 -27 -25.5 -58.5t-47 -59.5t-75 -46.5t-108.5 -18.5q-90 0 -152.5 44.5t-102.5 117t-57.5 165.5t-17.5 192zM254 522q0 -78 9 -154.5 t31.5 -137t62.5 -98.5t102 -38q55 0 97 32t70.5 86t43 126t14.5 154q0 63 -13.5 131.5t-41 126t-70.5 94.5t-104 37q-68 0 -108 -39t-60.5 -94.5t-26.5 -117t-6 -108.5z" />
<glyph unicode="r" horiz-adv-x="645" d="M164 0v975h139v-189h4q10 25 31.5 61t58.5 69.5t94.5 57t141.5 23.5v-149q-84 0 -145.5 -33t-102.5 -91t-61.5 -140t-20.5 -181v-403h-139z" />
<glyph unicode="s" horiz-adv-x="757" d="M76 18v127q8 -4 33.5 -12t60.5 -16t76 -15.5t82 -7.5q51 0 94 9.5t74.5 28t50 48t18.5 72.5q0 37 -19.5 64.5t-47 48t-58 36t-51.5 27.5l-88 47q-35 18 -73 40t-71.5 51.5t-55 71.5t-21.5 101q0 119 85 188.5t249 69.5q78 0 136 -12t93 -20v-129q-25 10 -89.5 27.5 t-137.5 17.5q-90 0 -143.5 -37t-53.5 -90q0 -31 16.5 -52.5t42 -39t57.5 -33t60 -29.5l82 -49q39 -20 79 -43t73 -53.5t54.5 -74.5t21.5 -108q0 -147 -95.5 -221t-267.5 -74q-96 0 -167 15.5t-99 25.5z" />
<glyph unicode="t" horiz-adv-x="681" d="M72 858v117h159v227l140 88v-315h262v-117h-262v-600q0 -25 5 -53.5t21.5 -53t48 -41t84.5 -16.5q35 0 53.5 5t41.5 14v-125q-31 -4 -62 -7.5t-61 -3.5q-147 0 -209 60.5t-62 191.5v629h-159z" />
<glyph unicode="u" d="M156 279v696h139v-541q0 -63 2 -120.5t15.5 -101.5t43 -69.5t82.5 -25.5q70 0 121 46t85 115.5t51.5 149.5t17.5 145v402h139v-975h-139v225h-4q-10 -31 -27.5 -72.5t-51.5 -80.5t-88.5 -67t-135.5 -28q-63 0 -110.5 25t-78.5 66t-46 95t-15 116z" />
<glyph unicode="v" horiz-adv-x="872" d="M16 975h150l287 -770h4l250 770h149l-330 -975h-141z" />
<glyph unicode="w" horiz-adv-x="1402" d="M86 975h139l178 -758h5l233 758h121l235 -758h4l177 758h139l-227 -975h-156l-229 748h-5l-227 -748h-151z" />
<glyph unicode="x" horiz-adv-x="909" d="M18 0l353 512l-312 463h168l232 -340l231 340h168l-315 -463l350 -512h-168l-266 389l-273 -389h-168z" />
<glyph unicode="y" horiz-adv-x="872" d="M12 975h150l284 -766h5l262 766h149l-471 -1370h-143l137 395z" />
<glyph unicode="z" horiz-adv-x="833" d="M63 0v115l510 743h-473v117h643v-119l-507 -739h526v-117h-699z" />
<glyph unicode="{" d="M229 510v49q43 14 84 36.5t73 55.5t50.5 75t18.5 93q0 41 -11.5 90t-21.5 103q-10 47 -17.5 94t-7.5 102q0 74 39 136.5t100.5 108.5t138.5 72.5t154 30.5v-51q-57 -12 -98 -40.5t-67.5 -67.5t-40 -83t-13.5 -87q0 -41 4 -83t11 -91q4 -37 9 -85t5 -77q0 -86 -35 -146.5 t-85 -101.5t-104.5 -66.5t-92.5 -41.5q39 -16 93 -44t104 -70t85 -101.5t35 -141.5q0 -29 -5 -77t-9 -85q-6 -49 -10.5 -91t-4.5 -83q0 -43 13.5 -87t40 -83t67.5 -67.5t98 -40.5v-51q-78 2 -154.5 29.5t-138 73.5t-100.5 108.5t-39 136.5q0 55 7.5 102t17.5 94 q10 53 21.5 102.5t11.5 90.5q0 47 -18.5 89t-50.5 74.5t-73 57.5t-84 39z" />
<glyph unicode="|" horiz-adv-x="530" d="M197 -279v1838h139v-1838h-139z" />
<glyph unicode="}" d="M201 -436q57 12 98 40.5t67.5 67.5t40 83t13.5 87q0 41 -4 83t-10 91q-4 37 -9.5 85.5t-5.5 76.5q0 82 35 141.5t85 101.5t104.5 69.5t93.5 44.5q-39 16 -93.5 41.5t-104.5 66.5t-85 101.5t-35 146.5q0 29 5 77t10 85q6 49 10 91t4 83q0 43 -13.5 87t-40 83t-67.5 67.5 t-98 40.5v51q76 -4 153.5 -30.5t139 -72.5t100.5 -108.5t39 -136.5q0 -55 -7.5 -102t-17.5 -94q-10 -53 -21.5 -102.5t-11.5 -90.5q0 -51 18.5 -93t50.5 -75t73 -55.5t84 -36.5v-49q-43 -14 -84 -39t-73 -57.5t-50.5 -74.5t-18.5 -89q0 -41 11.5 -90t21.5 -103 q10 -47 17.5 -94t7.5 -102q0 -74 -39 -136.5t-100.5 -108.5t-139.5 -73.5t-153 -29.5v51z" />
<glyph unicode="~" horiz-adv-x="1175" d="M117 334v98q0 27 9 70t35.5 82t70.5 67.5t116 28.5q66 0 106 -28.5t76 -63.5l172 -158q31 -29 60 -50.5t67 -21.5q70 0 97.5 48.5t27.5 107.5v92h103v-100q0 -23 -7.5 -66t-32 -84t-70.5 -71.5t-122 -30.5q-66 0 -105.5 30.5t-72.5 59.5l-182 168q-29 27 -53.5 48.5 t-63.5 21.5q-41 0 -66.5 -17.5t-40 -42t-18.5 -51.5t-4 -45v-92h-102z" />
<glyph unicode="&#xa1;" horiz-adv-x="569" d="M109 934v201h200v-201h-200zM125 -279l14 1031h140l14 -1031h-168z" />
<glyph unicode="&#xa2;" horiz-adv-x="909" d="M86 528q0 213 91 333t251 136v154h92v-154q135 -14 220 -95t85 -226h-166q0 92 -30.5 153.5t-108.5 85.5v-837q18 -10 46 -14.5t48 -4.5q53 0 105.5 10.5t87.5 26.5v-84q-12 -6 -39 -12t-60.5 -11t-71.5 -8.5t-73 -3.5h-43v-176h-92v191q-68 12 -129 48t-109.5 101.5 t-76 161.5t-27.5 225zM260 551q0 -98 16.5 -171t41 -126t54 -87t56.5 -52v800q-47 -12 -80 -44.5t-52.5 -82t-27.5 -110t-8 -127.5z" />
<glyph unicode="&#xa3;" horiz-adv-x="909" d="M68 614v117h137v301q0 158 81 245t261 87q109 0 180.5 -32t113.5 -77t59.5 -96t17.5 -90h-166q0 25 -9.5 56.5t-33 58t-62.5 45t-98 18.5t-95 -20.5t-55.5 -53t-26.5 -76.5t-7 -89v-277h237v-117h-237v-475h516v-139h-676v614h-137z" />
<glyph unicode="&#xa4;" d="M27 1141l65 65l135 -137q20 14 46 30.5t61 31t79 24.5t99 10t99 -10t79 -24.5t60.5 -31t46.5 -30.5l137 137l63 -65l-137 -137q10 -16 26.5 -40t32 -58t26.5 -81t11 -108q0 -57 -12 -103.5t-27.5 -81t-32 -58t-24.5 -36.5l137 -137l-63 -63l-137 137q-18 -12 -44 -29.5 t-61 -33t-79 -26t-101 -10.5q-55 0 -99 10.5t-79 26t-60.5 32.5t-46.5 30l-137 -137l-61 63l137 137q-10 12 -25.5 36t-32 58.5t-27.5 80.5t-11 104q0 61 10 107t25.5 81t32 58.5t28.5 40.5zM164 717q0 -72 27.5 -135.5t74.5 -110.5t110.5 -73.5t135.5 -26.5t135.5 26.5 t111.5 73.5t75.5 110.5t27.5 135.5q0 74 -27.5 138.5t-75.5 112.5t-111.5 75.5t-135.5 27.5t-135.5 -27.5t-110.5 -75.5t-74.5 -112.5t-27.5 -138.5z" />
<glyph unicode="&#xa5;" d="M-10 1413h172l348 -604l354 604h172l-319 -545h248v-116h-316l-59 -101v-135h375v-117h-375v-399h-160v399h-369v117h369v135l-57 101h-312v116h244z" />
<glyph unicode="&#xa6;" horiz-adv-x="530" d="M195 -279v736h139v-736h-139zM195 823v736h139v-736h-139z" />
<glyph unicode="&#xa7;" horiz-adv-x="948" d="M82 739q0 51 19.5 94.5t44 75t49 52t34.5 30.5q-8 6 -23.5 20.5t-30.5 36t-26.5 52t-11.5 69.5q0 68 30 117t77 83t108.5 50.5t126.5 16.5q55 0 104.5 -6.5t89.5 -15.5t66.5 -17t36.5 -11v-149q-35 20 -107.5 51t-166.5 31q-80 0 -140.5 -35t-60.5 -90q0 -61 51 -100 t123 -69t148.5 -57.5t130.5 -64.5q55 -41 83.5 -83t28.5 -109q0 -55 -19.5 -98.5t-45 -74t-51 -50t-37.5 -27.5q10 -8 28.5 -23.5t37 -40t31.5 -58.5t13 -77q0 -70 -31.5 -123t-87 -89t-128 -54.5t-154.5 -18.5q-98 0 -166 16.5t-96 26.5v164q47 -29 116.5 -59.5 t155.5 -30.5q96 0 161.5 39t65.5 111q0 57 -51 96t-123.5 71.5t-151.5 61.5t-134 64q-63 41 -90 89t-27 113zM225 786q0 -43 17.5 -72.5t47 -52t65.5 -39t73 -32.5q82 -37 134 -58.5t75 -31.5q10 10 24.5 25.5t29 36t23.5 45t9 52.5q0 66 -43 103t-115 72q-29 12 -69.5 29.5 t-80.5 33.5t-72 28.5t-40 18.5q-20 -23 -49 -60.5t-29 -97.5z" />
<glyph unicode="&#xa8;" horiz-adv-x="614" d="M35 1167v181h184v-181h-184zM395 1167v181h185v-181h-185z" />
<glyph unicode="&#xa9;" d="M31 954q0 98 37.5 186.5t103.5 154t154 103.5t186 38t186 -38t154 -103.5t103.5 -153.5t37.5 -187q0 -100 -37.5 -187t-103.5 -152.5t-153 -103.5t-187 -38q-98 0 -186 38t-154 103.5t-103.5 152.5t-37.5 187zM102 954q0 -84 33 -158.5t88.5 -130t130 -88t158.5 -32.5 t158.5 32.5t130 88t88.5 130t33 158.5t-33 159t-88.5 130t-130 88t-158.5 33t-158.5 -33t-130 -88t-88.5 -130t-33 -159zM256 963q0 59 23.5 109t62.5 87t89 57.5t106 20.5q41 0 73.5 -9t56 -22.5t39 -27t25.5 -21.5l-53 -67q-18 16 -53 39.5t-88 23.5q-33 0 -67 -12.5 t-61.5 -37t-45 -60t-17.5 -80.5q0 -47 17.5 -83t44 -59.5t59.5 -36t61 -12.5q66 0 97.5 22.5t52.5 39.5l53 -66q-8 -8 -23.5 -21.5t-39 -26.5t-56 -22.5t-75.5 -9.5q-55 0 -106.5 20.5t-89.5 57.5t-61.5 87t-23.5 110z" />
<glyph unicode="&#xaa;" horiz-adv-x="530" d="M72 719q0 66 39 100.5t91 51t104 19.5t77 3q0 35 -2 67.5t-11.5 58t-31 41t-59.5 15.5q-33 0 -53.5 -10t-33 -23.5t-17.5 -29t-5 -25.5h-86q0 20 8 47t29.5 49.5t59.5 38t95 15.5q63 0 99.5 -17.5t55 -43t22.5 -56.5t4 -57v-375h-74v71h-4q-6 -10 -16.5 -24t-30 -27.5 t-48 -23t-67.5 -9.5q-68 0 -106.5 42t-38.5 102zM154 719q0 -35 22.5 -54.5t56.5 -19.5q59 0 101.5 43t46.5 96q0 12 1 24.5t1 22.5h-21q-37 0 -73.5 -5t-67.5 -17t-49 -33.5t-18 -56.5z" />
<glyph unicode="&#xab;" horiz-adv-x="720" d="M66 500l151 385h148l-129 -385l129 -379h-148zM334 500l151 385h148l-127 -385l127 -379h-148z" />
<glyph unicode="&#xac;" horiz-adv-x="1175" d="M115 436v125h946v-428h-139v303h-807z" />
<glyph unicode="&#xad;" horiz-adv-x="833" d="M106 440v140h623v-140h-623z" />
<glyph unicode="&#xae;" d="M31 954q0 98 37.5 186.5t103.5 154t154 103.5t186 38t186 -38t154 -103.5t103.5 -153.5t37.5 -187q0 -100 -37.5 -187t-103.5 -152.5t-153 -103.5t-187 -38q-98 0 -186 38t-154 103.5t-103.5 152.5t-37.5 187zM102 954q0 -84 33 -158.5t88.5 -130t130 -88t158.5 -32.5 t158.5 32.5t130 88t88.5 130t33 158.5t-33 159t-88.5 130t-130 88t-158.5 33t-158.5 -33t-130 -88t-88.5 -130t-33 -159zM330 713v508h170q37 0 73.5 -5.5t66.5 -21.5t48.5 -49t18.5 -88q0 -35 -9.5 -55.5t-22.5 -35t-28.5 -21.5t-28.5 -13l95 -219h-103l-78 205h-110v-205 h-92zM422 999h110q33 0 55.5 15.5t22.5 50.5q0 68 -86 68h-102v-134z" />
<glyph unicode="&#xaf;" horiz-adv-x="614" d="M47 1145v123h518v-123h-518z" />
<glyph unicode="&#xb0;" horiz-adv-x="681" d="M117 1102q0 43 18.5 83t49 69.5t71.5 48t86 18.5t86 -18.5t71.5 -49t49 -70.5t18.5 -83q0 -49 -17.5 -91t-48 -73t-71.5 -48.5t-88 -17.5t-88 18.5t-71.5 50.5t-48 74t-17.5 89zM211 1100q0 -55 38 -95t93 -40t93 36.5t38 98.5q0 53 -39 90t-92 37t-92 -38t-39 -89z" />
<glyph unicode="&#xb1;" horiz-adv-x="1175" d="M115 -88h946v-125h-946v125zM115 436v125h403v402h139v-402h404v-125h-404v-436h-139v436h-403z" />
<glyph unicode="&#xb2;" horiz-adv-x="720" d="M84 1098q2 31 14.5 69.5t43 72.5t82.5 57.5t132 23.5q113 0 182.5 -66.5t69.5 -183.5q0 -63 -23.5 -124.5t-61.5 -120t-82 -108.5t-85 -91t-72.5 -69t-41.5 -40h379v-98h-535v96q31 25 96.5 86.5t133 141t118.5 170t51 169.5q0 53 -31.5 96.5t-103.5 43.5 q-76 0 -107.5 -39t-31.5 -86h-127z" />
<glyph unicode="&#xb3;" horiz-adv-x="720" d="M66 614h131q0 -18 6 -37.5t22.5 -36t43 -26.5t67.5 -10q152 0 151 155q0 55 -13 88t-36.5 51.5t-52.5 25.5t-59 10h-31v98h31q68 0 106.5 39t38.5 110q0 66 -31.5 104t-103.5 38q-37 0 -62.5 -11.5t-40 -28t-20.5 -35t-6 -32.5h-127q0 27 12 62.5t43 67.5t81 53.5 t126 21.5q111 0 181.5 -60.5t70.5 -166.5q0 -53 -11.5 -88t-29.5 -57.5t-41 -37t-45 -26.5q27 -10 52.5 -25.5t46 -42t32.5 -66.5t12 -102q0 -119 -72.5 -181t-195.5 -62q-82 0 -135 21.5t-85 52t-44 67.5t-12 67z" />
<glyph unicode="&#xb4;" horiz-adv-x="614" d="M242 1145l86 274h180l-137 -274h-129z" />
<glyph unicode="&#xb6;" d="M131 922q0 133 55.5 227t144.5 152.5t197.5 85t216.5 26.5h234v-84h-137v-1767h-76v1767h-104v-1767h-76v895q-66 8 -145 34.5t-147.5 81t-115.5 139.5t-47 210z" />
<glyph unicode="&#xb7;" horiz-adv-x="417" d="M111 551v199h196v-199h-196z" />
<glyph unicode="&#xb8;" horiz-adv-x="614" d="M178 -334q16 -16 49 -32.5t68 -16.5q39 0 68.5 26.5t29.5 67.5q0 33 -15.5 53.5t-37 30.5t-45 13.5t-41.5 3.5q-12 0 -24.5 -1t-24.5 -1l49 223h88l-37 -152h31q86 0 129 -50t43 -126q0 -68 -50 -119t-151 -51q-47 0 -79.5 9.5t-49.5 17.5v104z" />
<glyph unicode="&#xb9;" horiz-adv-x="720" d="M182 1065v119l187 114h94v-878h-115v756z" />
<glyph unicode="&#xba;" horiz-adv-x="569" d="M66 856q0 57 12 108.5t37.5 90.5t67.5 60.5t102 21.5q59 0 101 -21.5t68.5 -60.5t39 -90.5t12.5 -108.5q0 -59 -12.5 -109.5t-39 -88t-68.5 -59t-101 -21.5t-101.5 21.5t-68 59t-37.5 88t-12 109.5zM147 856q0 -37 5.5 -76t20.5 -69.5t42 -51t70 -20.5t69.5 20.5t42 51 t21.5 69.5t6 76t-6 76t-21.5 70.5t-42 52t-69.5 20.5t-70 -20.5t-42 -52t-20.5 -70.5t-5.5 -76z" />
<glyph unicode="&#xbb;" horiz-adv-x="720" d="M88 121l127 387l-127 377h148l149 -377l-149 -387h-148zM356 121l127 387l-127 377h148l151 -377l-151 -387h-148z" />
<glyph unicode="&#xbc;" horiz-adv-x="1669" d="M182 1065v119l187 114h94v-884h-115v762zM563 0l426 1298h117l-426 -1298h-117zM1014 246v92l354 549h123v-543h149v-98h-149v-246h-115v246h-362zM1133 344h243v395h-4z" />
<glyph unicode="&#xbd;" horiz-adv-x="1669" d="M182 1065v119l187 114h94v-884h-115v762zM522 0l424 1298h117l-424 -1298h-117zM1034 0v96q31 25 97.5 86.5t134 141t119 170t51.5 170.5q0 59 -32 102t-104 43q-74 0 -106.5 -42t-32.5 -89h-127q2 31 14.5 69.5t43 72.5t83 57.5t132.5 23.5q113 0 182.5 -66.5 t69.5 -181.5q0 -63 -25 -125.5t-61.5 -120t-81.5 -108.5t-86 -92t-73 -68.5t-42 -40.5h381v-98h-537z" />
<glyph unicode="&#xbe;" horiz-adv-x="1669" d="M66 614h131q0 -18 6 -37.5t22.5 -36t43 -26.5t67.5 -10q152 0 151 155q0 55 -13 88t-36.5 51.5t-52.5 25.5t-59 10h-31v98h31q68 0 106.5 39t38.5 110q0 66 -31.5 104t-103.5 38q-37 0 -62.5 -11.5t-40 -28t-20.5 -35t-6 -32.5h-127q0 27 12 62.5t43 67.5t81 53.5 t126 21.5q111 0 181.5 -60.5t70.5 -166.5q0 -53 -11.5 -88t-29.5 -57.5t-41 -37t-45 -26.5q27 -10 52.5 -25.5t46 -42t32.5 -66.5t12 -102q0 -119 -72.5 -181t-195.5 -62q-82 0 -135 21.5t-85 52t-44 67.5t-12 67zM563 0l426 1298h117l-426 -1298h-117zM1014 246v92l354 549 h123v-543h149v-98h-149v-246h-115v246h-362zM1133 344h243v395h-4z" />
<glyph unicode="&#xbf;" horiz-adv-x="833" d="M35 14q0 59 17.5 106.5t43 85.5t54 66.5t49.5 53.5l104 116q35 39 57.5 64.5t35 50.5t16.5 55.5t4 79.5v62h145v-95q0 -68 -4 -103.5t-17.5 -61t-38 -51t-65.5 -70.5l-119 -131q-43 -49 -81.5 -98.5t-38.5 -120.5q0 -92 64.5 -142.5t166.5 -50.5q43 0 87 9t81 21.5 t63.5 24t34.5 15.5v-154q-14 -4 -40.5 -12t-62.5 -16.5t-80 -13.5t-89 -5q-82 0 -152.5 20.5t-123 60.5t-82 98.5t-29.5 135.5zM389 936v199h201v-199h-201z" />
<glyph unicode="&#xc0;" horiz-adv-x="1138" d="M18 0l451 1413h195l456 -1413h-159l-142 436h-504l-137 -436h-160zM358 569h418l-207 699h-4zM366 1857h181l86 -274h-129z" />
<glyph unicode="&#xc1;" horiz-adv-x="1138" d="M18 0l451 1413h195l456 -1413h-159l-142 436h-504l-137 -436h-160zM358 569h418l-207 699h-4zM504 1583l86 274h180l-137 -274h-129z" />
<glyph unicode="&#xc2;" horiz-adv-x="1138" d="M18 0l451 1413h195l456 -1413h-159l-142 436h-504l-137 -436h-160zM313 1583l180 274h152l180 -274h-125l-129 170l-133 -170h-125zM358 569h418l-207 699h-4z" />
<glyph unicode="&#xc3;" horiz-adv-x="1138" d="M18 0l451 1413h195l456 -1413h-159l-142 436h-504l-137 -436h-160zM325 1583q0 31 5.5 71.5t17.5 83.5q16 51 48 64.5t46 13.5q31 0 65 -17.5t65.5 -37.5t61 -37.5t50.5 -17.5q16 0 24.5 10t12.5 25.5t5 32t1 28.5h86q0 -39 -4 -79t-16.5 -71.5t-36 -52t-62.5 -20.5 q-35 0 -70.5 16.5t-68.5 35.5t-59.5 35.5t-40.5 16.5t-22.5 -14t-13.5 -32.5t-6 -35t-1 -18.5h-87zM358 569h418l-207 699h-4z" />
<glyph unicode="&#xc4;" horiz-adv-x="1138" d="M18 0l451 1413h195l456 -1413h-159l-142 436h-504l-137 -436h-160zM297 1605v181h184v-181h-184zM358 569h418l-207 699h-4zM657 1605v181h185v-181h-185z" />
<glyph unicode="&#xc5;" horiz-adv-x="1138" d="M18 0l451 1413h195l456 -1413h-159l-142 436h-504l-137 -436h-160zM358 569h418l-207 699h-4zM393 1726q0 37 14.5 69t39 55.5t56 36.5t68.5 13q72 0 123 -51t51 -123q0 -37 -14 -68.5t-37.5 -55t-55.5 -38t-69 -14.5t-68.5 14.5t-56 38t-38 55t-13.5 68.5zM481 1726 q0 -37 25.5 -62.5t62.5 -25.5t62.5 25.5t25.5 62.5q0 35 -25.5 60.5t-62.5 25.5q-39 0 -63.5 -25.5t-24.5 -60.5z" />
<glyph unicode="&#xc6;" horiz-adv-x="1630" d="M0 0l805 1413h735v-133h-541l41 -535h476v-133h-467l34 -479h478v-133h-615l-43 612h-377l-348 -612h-178zM588 745h305l-31 496h-4z" />
<glyph unicode="&#xc7;" horiz-adv-x="1099" d="M104 733q0 137 27 264t88.5 224.5t163.5 156t254 58.5q106 0 188 -32t137.5 -86t84 -129t28.5 -161h-180q0 119 -66.5 197t-191.5 78q-113 0 -182.5 -52.5t-108.5 -135.5t-53 -186.5t-14 -203.5q0 -59 6 -128t22.5 -136.5t45 -131t73.5 -112.5t109.5 -77.5t150.5 -28.5 q68 0 122 13t96 32.5t72 39t46 31.5v-166q-23 -10 -54.5 -23t-76.5 -27.5t-104.5 -24t-139.5 -9.5q-43 0 -76 7l-24 -103h31q86 0 129 -50t43 -126q0 -68 -50.5 -119t-150.5 -51q-47 0 -80 9.5t-49 17.5v104q16 -16 49 -32.5t68 -16.5q39 0 68.5 26.5t29.5 67.5 q0 33 -15.5 53.5t-37 30.5t-45 13.5t-41.5 3.5q-12 0 -24.5 -1t-25.5 -1l43 192q-113 33 -187.5 109.5t-118.5 178t-61.5 217.5t-17.5 226z" />
<glyph unicode="&#xc8;" horiz-adv-x="948" d="M174 0v1413h684v-133h-524v-473h500v-133h-500v-541h543v-133h-703zM313 1857h181l86 -274h-129z" />
<glyph unicode="&#xc9;" horiz-adv-x="948" d="M174 0v1413h684v-133h-524v-473h500v-133h-500v-541h543v-133h-703zM441 1583l86 274h180l-137 -274h-129z" />
<glyph unicode="&#xca;" horiz-adv-x="948" d="M174 0v1413h684v-133h-524v-473h500v-133h-500v-541h543v-133h-703zM270 1583l180 274h152l180 -274h-125l-129 170l-133 -170h-125z" />
<glyph unicode="&#xcb;" horiz-adv-x="948" d="M174 0v1413h684v-133h-524v-473h500v-133h-500v-541h543v-133h-703zM254 1605v181h184v-181h-184zM614 1605v181h185v-181h-185z" />
<glyph unicode="&#xcc;" horiz-adv-x="530" d="M65 1857h181l86 -274h-129zM184 0v1413h160v-1413h-160z" />
<glyph unicode="&#xcd;" horiz-adv-x="530" d="M184 0v1413h160v-1413h-160zM203 1583l86 274h180l-137 -274h-129z" />
<glyph unicode="&#xce;" horiz-adv-x="530" d="M12 1583l180 274h152l180 -274h-125l-129 170l-133 -170h-125zM184 0v1413h160v-1413h-160z" />
<glyph unicode="&#xcf;" horiz-adv-x="530" d="M-4 1605v181h184v-181h-184zM184 0v1413h160v-1413h-160zM356 1605v181h185v-181h-185z" />
<glyph unicode="&#xd0;" horiz-adv-x="1175" d="M0 690v103h174v620h340q154 0 259.5 -50t172 -142.5t96 -221.5t29.5 -288q0 -231 -48 -370.5t-135 -215.5t-207 -100.5t-263 -24.5h-244v690h-174zM334 133h108q115 0 201 23.5t142.5 88t84 176t27.5 288.5q0 186 -34 298.5t-95 173t-148.5 80t-195.5 19.5h-90v-487h301 v-103h-301v-557z" />
<glyph unicode="&#xd1;" horiz-adv-x="1290" d="M174 0v1413h205l582 -1194h4v1194h151v-1413h-205l-581 1190h-4v-1190h-152zM401 1583q0 31 5.5 71.5t17.5 83.5q16 51 48 64.5t46 13.5q31 0 65 -17.5t65.5 -37.5t61 -37.5t50.5 -17.5q16 0 24.5 10t12.5 25.5t5 32t1 28.5h86q0 -39 -4 -79t-16.5 -71.5t-36 -52 t-62.5 -20.5q-35 0 -70.5 16.5t-68.5 35.5t-59.5 35.5t-40.5 16.5t-22.5 -14t-13.5 -32.5t-6 -35t-1 -18.5h-87z" />
<glyph unicode="&#xd2;" horiz-adv-x="1214" d="M104 709q0 135 21.5 265t78 232.5t155 166t249.5 63.5q152 0 249 -63.5t153.5 -166t78 -232.5t21.5 -265q0 -133 -21.5 -264.5t-78 -235t-153.5 -168t-249 -64.5t-250 64.5t-154.5 168t-78 234.5t-21.5 265zM279 711q0 -96 11 -202t47 -194t100.5 -146t170.5 -58t171 58 t99.5 146t46 193.5t11.5 202.5q0 96 -11.5 200.5t-46 191.5t-99 143.5t-171.5 56.5q-106 0 -170.5 -56.5t-100.5 -143.5t-47 -191.5t-11 -200.5zM385 1857h181l86 -274h-129z" />
<glyph unicode="&#xd3;" horiz-adv-x="1214" d="M104 709q0 135 21.5 265t78 232.5t155 166t249.5 63.5q152 0 249 -63.5t153.5 -166t78 -232.5t21.5 -265q0 -133 -21.5 -264.5t-78 -235t-153.5 -168t-249 -64.5t-250 64.5t-154.5 168t-78 234.5t-21.5 265zM279 711q0 -96 11 -202t47 -194t100.5 -146t170.5 -58t171 58 t99.5 146t46 193.5t11.5 202.5q0 96 -11.5 200.5t-46 191.5t-99 143.5t-171.5 56.5q-106 0 -170.5 -56.5t-100.5 -143.5t-47 -191.5t-11 -200.5zM543 1583l86 274h180l-137 -274h-129z" />
<glyph unicode="&#xd4;" horiz-adv-x="1214" d="M104 709q0 135 21.5 265t78 232.5t155 166t249.5 63.5q152 0 249 -63.5t153.5 -166t78 -232.5t21.5 -265q0 -133 -21.5 -264.5t-78 -235t-153.5 -168t-249 -64.5t-250 64.5t-154.5 168t-78 234.5t-21.5 265zM279 711q0 -96 11 -202t47 -194t100.5 -146t170.5 -58t171 58 t99.5 146t46 193.5t11.5 202.5q0 96 -11.5 200.5t-46 191.5t-99 143.5t-171.5 56.5q-106 0 -170.5 -56.5t-100.5 -143.5t-47 -191.5t-11 -200.5zM352 1583l180 274h152l180 -274h-125l-129 170l-133 -170h-125z" />
<glyph unicode="&#xd5;" horiz-adv-x="1214" d="M104 709q0 135 21.5 265t78 232.5t155 166t249.5 63.5q152 0 249 -63.5t153.5 -166t78 -232.5t21.5 -265q0 -133 -21.5 -264.5t-78 -235t-153.5 -168t-249 -64.5t-250 64.5t-154.5 168t-78 234.5t-21.5 265zM279 711q0 -96 11 -202t47 -194t100.5 -146t170.5 -58t171 58 t99.5 146t46 193.5t11.5 202.5q0 96 -11.5 200.5t-46 191.5t-99 143.5t-171.5 56.5q-106 0 -170.5 -56.5t-100.5 -143.5t-47 -191.5t-11 -200.5zM364 1583q0 31 5.5 71.5t17.5 83.5q16 51 48 64.5t46 13.5q31 0 65 -17.5t65.5 -37.5t61 -37.5t50.5 -17.5q16 0 24.5 10 t12.5 25.5t5 32t1 28.5h86q0 -39 -4 -79t-16.5 -71.5t-36 -52t-62.5 -20.5q-35 0 -70.5 16.5t-68.5 35.5t-59.5 35.5t-40.5 16.5t-22.5 -14t-13.5 -32.5t-6 -35t-1 -18.5h-87z" />
<glyph unicode="&#xd6;" horiz-adv-x="1214" d="M104 709q0 135 21.5 265t78 232.5t155 166t249.5 63.5q152 0 249 -63.5t153.5 -166t78 -232.5t21.5 -265q0 -133 -21.5 -264.5t-78 -235t-153.5 -168t-249 -64.5t-250 64.5t-154.5 168t-78 234.5t-21.5 265zM279 711q0 -96 11 -202t47 -194t100.5 -146t170.5 -58t171 58 t99.5 146t46 193.5t11.5 202.5q0 96 -11.5 200.5t-46 191.5t-99 143.5t-171.5 56.5q-106 0 -170.5 -56.5t-100.5 -143.5t-47 -191.5t-11 -200.5zM336 1605v181h184v-181h-184zM696 1605v181h185v-181h-185z" />
<glyph unicode="&#xd7;" horiz-adv-x="1175" d="M111 94l376 385l-370 385l108 109l367 -379l369 379l96 -92l-369 -387l375 -388l-113 -106l-375 387l-368 -387z" />
<glyph unicode="&#xd8;" horiz-adv-x="1214" d="M104 709q0 135 21.5 265t78 232.5t155 166t249.5 63.5q55 0 96 -6.5t74 -17.5t61.5 -28.5t59.5 -37.5l88 151l86 -51l-100 -176q78 -115 107.5 -261.5t29.5 -299.5q0 -133 -21.5 -264.5t-78 -235t-153.5 -168t-249 -64.5q-57 0 -100 7.5t-78 20.5t-63.5 33.5t-59.5 45.5 l-96 -166l-88 51l110 197q-72 117 -100.5 244t-28.5 299zM279 711q0 -92 10 -194.5t39 -190.5l495 886q-43 61 -97 76t-118 15q-106 0 -170.5 -56.5t-100.5 -143.5t-47 -191.5t-11 -200.5zM381 219q41 -51 92 -79.5t135 -28.5q106 0 171 58t99.5 146t46 193.5t11.5 202.5 q0 100 -11.5 206.5t-43.5 192.5z" />
<glyph unicode="&#xd9;" horiz-adv-x="1214" d="M162 455v958h160v-928q0 -59 6 -125.5t32.5 -122t83 -91t156.5 -35.5q111 0 170 35.5t87 91t32 122t4 125.5v928h160v-958q0 -70 -11.5 -153t-56.5 -155.5t-137 -121t-254 -48.5q-145 0 -230 48.5t-130.5 121t-58.5 155.5t-13 153zM405 1857h181l86 -274h-129z" />
<glyph unicode="&#xda;" horiz-adv-x="1214" d="M162 455v958h160v-928q0 -59 6 -125.5t32.5 -122t83 -91t156.5 -35.5q111 0 170 35.5t87 91t32 122t4 125.5v928h160v-958q0 -70 -11.5 -153t-56.5 -155.5t-137 -121t-254 -48.5q-145 0 -230 48.5t-130.5 121t-58.5 155.5t-13 153zM543 1583l86 274h180l-137 -274h-129z " />
<glyph unicode="&#xdb;" horiz-adv-x="1214" d="M162 455v958h160v-928q0 -59 6 -125.5t32.5 -122t83 -91t156.5 -35.5q111 0 170 35.5t87 91t32 122t4 125.5v928h160v-958q0 -70 -11.5 -153t-56.5 -155.5t-137 -121t-254 -48.5q-145 0 -230 48.5t-130.5 121t-58.5 155.5t-13 153zM352 1583l180 274h152l180 -274h-125 l-129 170l-133 -170h-125z" />
<glyph unicode="&#xdc;" horiz-adv-x="1214" d="M162 455v958h160v-928q0 -59 6 -125.5t32.5 -122t83 -91t156.5 -35.5q111 0 170 35.5t87 91t32 122t4 125.5v928h160v-958q0 -70 -11.5 -153t-56.5 -155.5t-137 -121t-254 -48.5q-145 0 -230 48.5t-130.5 121t-58.5 155.5t-13 153zM336 1605v181h184v-181h-184zM696 1605 v181h185v-181h-185z" />
<glyph unicode="&#xdd;" d="M-10 1413h174l346 -600l352 600h174l-446 -762v-651h-160v651zM447 1583l86 274h180l-137 -274h-129z" />
<glyph unicode="&#xde;" horiz-adv-x="1175" d="M166 0v1413h160v-272h340q211 0 316 -93.5t105 -306.5q0 -117 -26.5 -195.5t-79.5 -124.5t-132 -65.5t-183 -19.5h-340v-336h-160zM326 469h309q45 0 94 6t90 33t67.5 81t26.5 148q0 92 -26.5 144.5t-67.5 79t-90 35t-94 12.5h-309v-539z" />
<glyph unicode="&#xdf;" horiz-adv-x="1062" d="M164 0v1036q0 88 18.5 161t59.5 126t109.5 83t170.5 30q84 0 151.5 -26t116 -72t75 -110.5t26.5 -142.5q0 -70 -17.5 -123t-47 -92t-67.5 -63.5t-79 -36.5v-4q55 -6 108.5 -27.5t93.5 -66.5t64.5 -115t24.5 -174q0 -199 -105.5 -300t-292.5 -101q-35 0 -75.5 4t-79.5 18 v117q35 -6 66.5 -14.5t70.5 -8.5q70 0 119 22.5t79.5 61.5t44 91.5t13.5 111.5q0 66 -12.5 124t-44 102t-86 70t-136.5 26h-30v116h30q90 10 144.5 68.5t54.5 183.5q0 102 -55 173t-156 71q-82 0 -126 -29.5t-64.5 -76t-23.5 -103.5t-3 -111v-999h-139z" />
<glyph unicode="&#xe0;" horiz-adv-x="948" d="M86 250q0 86 49 143.5t120 93t151.5 51t144.5 15.5q27 0 49.5 1t46.5 5v45t-1 54.5t-2 51t-3 35.5q-8 41 -26.5 67t-43 41t-53.5 21.5t-55 6.5q-59 0 -96 -13.5t-58.5 -36t-31 -50t-13.5 -56.5h-155q0 45 17 94t58 88t107.5 64.5t167.5 25.5q113 0 178 -31.5t99 -78.5 t42 -102.5t8 -100.5v-684h-135v129h-4q-10 -18 -32.5 -44t-59.5 -49.5t-88 -41t-119 -17.5q-121 0 -191.5 71t-70.5 202zM246 236q0 -70 42 -106t95 -36q66 0 131.5 40t95.5 112q8 20 15.5 37.5t12.5 38t7 49t2 71.5h-82q-39 0 -93 -9t-104.5 -31.5t-86 -63.5t-35.5 -102z M272 1419h181l86 -274h-129z" />
<glyph unicode="&#xe1;" horiz-adv-x="948" d="M86 250q0 86 49 143.5t120 93t151.5 51t144.5 15.5q27 0 49.5 1t46.5 5v45t-1 54.5t-2 51t-3 35.5q-8 41 -26.5 67t-43 41t-53.5 21.5t-55 6.5q-59 0 -96 -13.5t-58.5 -36t-31 -50t-13.5 -56.5h-155q0 45 17 94t58 88t107.5 64.5t167.5 25.5q113 0 178 -31.5t99 -78.5 t42 -102.5t8 -100.5v-684h-135v129h-4q-10 -18 -32.5 -44t-59.5 -49.5t-88 -41t-119 -17.5q-121 0 -191.5 71t-70.5 202zM246 236q0 -70 42 -106t95 -36q66 0 131.5 40t95.5 112q8 20 15.5 37.5t12.5 38t7 49t2 71.5h-82q-39 0 -93 -9t-104.5 -31.5t-86 -63.5t-35.5 -102z M410 1145l86 274h180l-137 -274h-129z" />
<glyph unicode="&#xe2;" horiz-adv-x="948" d="M86 250q0 86 49 143.5t120 93t151.5 51t144.5 15.5q27 0 49.5 1t46.5 5v45t-1 54.5t-2 51t-3 35.5q-8 41 -26.5 67t-43 41t-53.5 21.5t-55 6.5q-59 0 -96 -13.5t-58.5 -36t-31 -50t-13.5 -56.5h-155q0 45 17 94t58 88t107.5 64.5t167.5 25.5q113 0 178 -31.5t99 -78.5 t42 -102.5t8 -100.5v-684h-135v129h-4q-10 -18 -32.5 -44t-59.5 -49.5t-88 -41t-119 -17.5q-121 0 -191.5 71t-70.5 202zM219 1145l180 274h152l180 -274h-125l-129 170l-133 -170h-125zM246 236q0 -70 42 -106t95 -36q66 0 131.5 40t95.5 112q8 20 15.5 37.5t12.5 38t7 49 t2 71.5h-82q-39 0 -93 -9t-104.5 -31.5t-86 -63.5t-35.5 -102z" />
<glyph unicode="&#xe3;" horiz-adv-x="948" d="M86 250q0 86 49 143.5t120 93t151.5 51t144.5 15.5q27 0 49.5 1t46.5 5v45t-1 54.5t-2 51t-3 35.5q-8 41 -26.5 67t-43 41t-53.5 21.5t-55 6.5q-59 0 -96 -13.5t-58.5 -36t-31 -50t-13.5 -56.5h-155q0 45 17 94t58 88t107.5 64.5t167.5 25.5q113 0 178 -31.5t99 -78.5 t42 -102.5t8 -100.5v-684h-135v129h-4q-10 -18 -32.5 -44t-59.5 -49.5t-88 -41t-119 -17.5q-121 0 -191.5 71t-70.5 202zM231 1145q0 31 5.5 71.5t17.5 83.5q16 51 48 64.5t46 13.5q31 0 65 -17.5t65.5 -37.5t61 -37.5t50.5 -17.5q16 0 24.5 10t12.5 25.5t5 32t1 28.5h86 q0 -39 -4 -79t-16.5 -71.5t-36 -52t-62.5 -20.5q-35 0 -70.5 16.5t-68.5 35.5t-59.5 35.5t-40.5 16.5t-22.5 -14t-13.5 -32.5t-6 -35t-1 -18.5h-87zM246 236q0 -70 42 -106t95 -36q66 0 131.5 40t95.5 112q8 20 15.5 37.5t12.5 38t7 49t2 71.5h-82q-39 0 -93 -9 t-104.5 -31.5t-86 -63.5t-35.5 -102z" />
<glyph unicode="&#xe4;" horiz-adv-x="948" d="M86 250q0 86 49 143.5t120 93t151.5 51t144.5 15.5q27 0 49.5 1t46.5 5v45t-1 54.5t-2 51t-3 35.5q-8 41 -26.5 67t-43 41t-53.5 21.5t-55 6.5q-59 0 -96 -13.5t-58.5 -36t-31 -50t-13.5 -56.5h-155q0 45 17 94t58 88t107.5 64.5t167.5 25.5q113 0 178 -31.5t99 -78.5 t42 -102.5t8 -100.5v-684h-135v129h-4q-10 -18 -32.5 -44t-59.5 -49.5t-88 -41t-119 -17.5q-121 0 -191.5 71t-70.5 202zM203 1167v181h184v-181h-184zM246 236q0 -70 42 -106t95 -36q66 0 131.5 40t95.5 112q8 20 15.5 37.5t12.5 38t7 49t2 71.5h-82q-39 0 -93 -9 t-104.5 -31.5t-86 -63.5t-35.5 -102zM563 1167v181h185v-181h-185z" />
<glyph unicode="&#xe5;" horiz-adv-x="948" d="M86 250q0 86 49 143.5t120 93t151.5 51t144.5 15.5q27 0 49.5 1t46.5 5v45t-1 54.5t-2 51t-3 35.5q-8 41 -26.5 67t-43 41t-53.5 21.5t-55 6.5q-59 0 -96 -13.5t-58.5 -36t-31 -50t-13.5 -56.5h-155q0 45 17 94t58 88t107.5 64.5t167.5 25.5q113 0 178 -31.5t99 -78.5 t42 -102.5t8 -100.5v-684h-135v129h-4q-10 -18 -32.5 -44t-59.5 -49.5t-88 -41t-119 -17.5q-121 0 -191.5 71t-70.5 202zM246 236q0 -70 42 -106t95 -36q66 0 131.5 40t95.5 112q8 20 15.5 37.5t12.5 38t7 49t2 71.5h-82q-39 0 -93 -9t-104.5 -31.5t-86 -63.5t-35.5 -102z M299 1288q0 37 14.5 69t39 55.5t56 36.5t68.5 13q72 0 123 -51t51 -123q0 -37 -14 -68.5t-37.5 -55t-55.5 -38t-69 -14.5t-68.5 14.5t-56 38t-38 55t-13.5 68.5zM387 1288q0 -37 25.5 -62.5t62.5 -25.5t62.5 25.5t25.5 62.5q0 35 -25.5 60.5t-62.5 25.5q-39 0 -63.5 -25.5 t-24.5 -60.5z" />
<glyph unicode="&#xe6;" horiz-adv-x="1441" d="M88 297q0 92 49 155.5t120 102.5t151.5 55.5t144.5 16.5q25 0 46.5 2t45.5 4v112q-8 41 -26.5 67t-43 41t-53 21.5t-57.5 6.5q-59 0 -96 -13.5t-58.5 -36t-31 -50t-13.5 -56.5h-155q0 45 17 94t58 88t107.5 64.5t167.5 25.5q104 0 172.5 -35.5t97.5 -89.5q45 51 118 88 t167 37q86 0 149.5 -32.5t105.5 -90t63.5 -136.5t21.5 -171v-49h-572v-55q0 -47 18.5 -110.5t60.5 -121t110.5 -97.5t169.5 -40q39 0 67.5 3t50 7.5t39 8.5t33.5 8v-115q-92 -29 -223 -29q-55 0 -113.5 12.5t-113 38t-99.5 64.5t-69 90q-23 -43 -52.5 -81t-71.5 -65.5 t-101.5 -43t-139.5 -15.5q-121 0 -191.5 83t-70.5 237zM248 283q0 -92 42 -140.5t95 -48.5q39 0 84 13.5t84 47t65.5 89t26.5 141.5v133h-78q-39 0 -93 -10t-104.5 -37t-86 -73t-35.5 -115zM795 635h401q0 33 -9 75t-30.5 79.5t-57.5 64.5t-89 27q-59 0 -98.5 -27t-64 -64.5 t-36.5 -79.5t-16 -75z" />
<glyph unicode="&#xe7;" horiz-adv-x="872" d="M94 510q0 111 22.5 200t71 153.5t124 99t180.5 34.5q98 0 161.5 -27.5t102.5 -73.5t54 -103.5t15 -114.5h-166q0 39 -9 76t-28.5 64.5t-53 45t-83.5 17.5q-66 0 -110.5 -33t-71.5 -82t-38 -109.5t-11 -115.5q0 -70 15.5 -149t57.5 -144.5t117.5 -109.5t196.5 -44 q27 0 72 3t86 18v-111q-47 -14 -91 -20.5t-112 -6.5q-78 0 -135 15l-27 -111h31q86 0 129 -50t43 -126q0 -68 -50 -119t-151 -51q-47 0 -79.5 9.5t-49.5 17.5v104q16 -16 49 -32.5t68 -16.5q39 0 68.5 26.5t29.5 67.5q0 33 -15 53.5t-36.5 30.5t-45.5 13.5t-42 3.5 q-12 0 -24.5 -1t-24.5 -1l45 206q-135 51 -210 174t-75 320z" />
<glyph unicode="&#xe8;" horiz-adv-x="909" d="M98 520q0 109 22.5 197t70 150.5t119 96t169.5 33.5q86 0 149.5 -27.5t106.5 -77.5t63.5 -117.5t20.5 -147.5v-47h-561v-58q0 -55 14.5 -129t53.5 -140.5t106.5 -112.5t171.5 -46q41 0 69.5 3t50 7.5t39 8.5t34.5 8v-115q-92 -29 -224 -29q-227 0 -351 135.5t-124 407.5z M251 1419h181l86 -274h-129zM268 696h391q0 25 -9 56.5t-30.5 60.5t-57.5 48.5t-89 19.5q-55 0 -92 -19.5t-60.5 -48.5t-36 -60.5t-16.5 -56.5z" />
<glyph unicode="&#xe9;" horiz-adv-x="909" d="M98 520q0 109 22.5 197t70 150.5t119 96t169.5 33.5q86 0 149.5 -27.5t106.5 -77.5t63.5 -117.5t20.5 -147.5v-47h-561v-58q0 -55 14.5 -129t53.5 -140.5t106.5 -112.5t171.5 -46q41 0 69.5 3t50 7.5t39 8.5t34.5 8v-115q-92 -29 -224 -29q-227 0 -351 135.5t-124 407.5z M268 696h391q0 25 -9 56.5t-30.5 60.5t-57.5 48.5t-89 19.5q-55 0 -92 -19.5t-60.5 -48.5t-36 -60.5t-16.5 -56.5zM410 1145l86 274h180l-137 -274h-129z" />
<glyph unicode="&#xea;" horiz-adv-x="909" d="M98 520q0 109 22.5 197t70 150.5t119 96t169.5 33.5q86 0 149.5 -27.5t106.5 -77.5t63.5 -117.5t20.5 -147.5v-47h-561v-58q0 -55 14.5 -129t53.5 -140.5t106.5 -112.5t171.5 -46q41 0 69.5 3t50 7.5t39 8.5t34.5 8v-115q-92 -29 -224 -29q-227 0 -351 135.5t-124 407.5z M198 1145l180 274h152l180 -274h-125l-129 170l-133 -170h-125zM268 696h391q0 25 -9 56.5t-30.5 60.5t-57.5 48.5t-89 19.5q-55 0 -92 -19.5t-60.5 -48.5t-36 -60.5t-16.5 -56.5z" />
<glyph unicode="&#xeb;" horiz-adv-x="909" d="M98 520q0 109 22.5 197t70 150.5t119 96t169.5 33.5q86 0 149.5 -27.5t106.5 -77.5t63.5 -117.5t20.5 -147.5v-47h-561v-58q0 -55 14.5 -129t53.5 -140.5t106.5 -112.5t171.5 -46q41 0 69.5 3t50 7.5t39 8.5t34.5 8v-115q-92 -29 -224 -29q-227 0 -351 135.5t-124 407.5z M182 1167v181h184v-181h-184zM268 696h391q0 25 -9 56.5t-30.5 60.5t-57.5 48.5t-89 19.5q-55 0 -92 -19.5t-60.5 -48.5t-36 -60.5t-16.5 -56.5zM542 1167v181h185v-181h-185z" />
<glyph unicode="&#xec;" horiz-adv-x="493" d="M47 1419h181l86 -274h-129zM178 0v975h139v-975h-139z" />
<glyph unicode="&#xed;" horiz-adv-x="493" d="M178 0v975h139v-975h-139zM185 1145l86 274h180l-137 -274h-129z" />
<glyph unicode="&#xee;" horiz-adv-x="493" d="M-6 1145l180 274h152l180 -274h-125l-129 170l-133 -170h-125zM178 0v975h139v-975h-139z" />
<glyph unicode="&#xef;" horiz-adv-x="493" d="M-22 1167v181h184v-181h-184zM178 0v975h139v-975h-139zM338 1167v181h185v-181h-185z" />
<glyph unicode="&#xf0;" d="M96 485q0 106 22.5 199.5t73 163.5t129 109.5t191.5 39.5q102 0 164 -71l4 4q-10 18 -27.5 42.5t-42 52.5t-53.5 54.5t-57 48.5l-185 -73l-32 80l135 55q-43 29 -97.5 57.5t-109.5 50.5h256q23 -14 44 -26t44 -29l162 66l35 -82l-119 -49q82 -78 139 -163t91 -174 t49.5 -179.5t15.5 -176.5q0 -106 -23.5 -199t-74 -162t-129 -108t-189.5 -39q-113 0 -191.5 39t-129 108t-73 162t-22.5 199zM256 487q0 -186 63.5 -289.5t192.5 -103.5t192.5 103.5t63.5 289.5q0 184 -63.5 289t-192.5 105t-192.5 -105t-63.5 -289z" />
<glyph unicode="&#xf1;" d="M164 0v975h139v-225h4q10 31 28.5 72.5t52.5 80.5t88 66.5t136 27.5q61 0 108.5 -24.5t79 -65.5t47 -95t15.5 -116v-696h-139v541q0 63 -2 120.5t-15.5 101.5t-43 69.5t-82.5 25.5q-70 0 -121 -47t-86 -115.5t-52.5 -148.5t-17.5 -146v-401h-139zM268 1145q0 31 5.5 71.5 t17.5 83.5q16 51 48 64.5t46 13.5q31 0 65 -17.5t65.5 -37.5t61 -37.5t50.5 -17.5q16 0 24.5 10t12.5 25.5t5 32t1 28.5h86q0 -39 -4 -79t-16.5 -71.5t-36 -52t-62.5 -20.5q-35 0 -70.5 16.5t-68.5 35.5t-59.5 35.5t-40.5 16.5t-22.5 -14t-13.5 -32.5t-6 -35t-1 -18.5h-87z " />
<glyph unicode="&#xf2;" horiz-adv-x="985" d="M94 485q0 106 21.5 199.5t69.5 163.5t123 109.5t184 39.5t184.5 -39.5t123.5 -109.5t70.5 -163t22.5 -200q0 -106 -22.5 -199t-70.5 -162t-123.5 -108t-184.5 -39t-184 39t-123 108t-69.5 162t-21.5 199zM254 487q0 -186 59.5 -289.5t178.5 -103.5q121 0 181 103.5 t60 289.5q0 184 -60.5 289t-180.5 105q-119 0 -178.5 -105t-59.5 -289zM290 1419h181l86 -274h-129z" />
<glyph unicode="&#xf3;" horiz-adv-x="985" d="M94 485q0 106 21.5 199.5t69.5 163.5t123 109.5t184 39.5t184.5 -39.5t123.5 -109.5t70.5 -163t22.5 -200q0 -106 -22.5 -199t-70.5 -162t-123.5 -108t-184.5 -39t-184 39t-123 108t-69.5 162t-21.5 199zM254 487q0 -186 59.5 -289.5t178.5 -103.5q121 0 181 103.5 t60 289.5q0 184 -60.5 289t-180.5 105q-119 0 -178.5 -105t-59.5 -289zM428 1145l86 274h180l-137 -274h-129z" />
<glyph unicode="&#xf4;" horiz-adv-x="985" d="M94 485q0 106 21.5 199.5t69.5 163.5t123 109.5t184 39.5t184.5 -39.5t123.5 -109.5t70.5 -163t22.5 -200q0 -106 -22.5 -199t-70.5 -162t-123.5 -108t-184.5 -39t-184 39t-123 108t-69.5 162t-21.5 199zM237 1145l180 274h152l180 -274h-125l-129 170l-133 -170h-125z M254 487q0 -186 59.5 -289.5t178.5 -103.5q121 0 181 103.5t60 289.5q0 184 -60.5 289t-180.5 105q-119 0 -178.5 -105t-59.5 -289z" />
<glyph unicode="&#xf5;" horiz-adv-x="985" d="M94 485q0 106 21.5 199.5t69.5 163.5t123 109.5t184 39.5t184.5 -39.5t123.5 -109.5t70.5 -163t22.5 -200q0 -106 -22.5 -199t-70.5 -162t-123.5 -108t-184.5 -39t-184 39t-123 108t-69.5 162t-21.5 199zM249 1145q0 31 5.5 71.5t17.5 83.5q16 51 48 64.5t46 13.5 q31 0 65 -17.5t65.5 -37.5t61 -37.5t50.5 -17.5q16 0 24.5 10t12.5 25.5t5 32t1 28.5h86q0 -39 -4 -79t-16.5 -71.5t-36 -52t-62.5 -20.5q-35 0 -70.5 16.5t-68.5 35.5t-59.5 35.5t-40.5 16.5t-22.5 -14t-13.5 -32.5t-6 -35t-1 -18.5h-87zM254 487q0 -186 59.5 -289.5 t178.5 -103.5q121 0 181 103.5t60 289.5q0 184 -60.5 289t-180.5 105q-119 0 -178.5 -105t-59.5 -289z" />
<glyph unicode="&#xf6;" horiz-adv-x="985" d="M94 485q0 106 21.5 199.5t69.5 163.5t123 109.5t184 39.5t184.5 -39.5t123.5 -109.5t70.5 -163t22.5 -200q0 -106 -22.5 -199t-70.5 -162t-123.5 -108t-184.5 -39t-184 39t-123 108t-69.5 162t-21.5 199zM221 1167v181h184v-181h-184zM254 487q0 -186 59.5 -289.5 t178.5 -103.5q121 0 181 103.5t60 289.5q0 184 -60.5 289t-180.5 105q-119 0 -178.5 -105t-59.5 -289zM581 1167v181h185v-181h-185z" />
<glyph unicode="&#xf7;" horiz-adv-x="1175" d="M115 436v125h946v-125h-946zM496 0v186h186v-186h-186zM496 811v186h186v-186h-186z" />
<glyph unicode="&#xf8;" horiz-adv-x="985" d="M94 485q2 106 26.5 200.5t73 163.5t122 108.5t176.5 39.5q121 0 208 -59l82 137l74 -45l-88 -147q66 -80 95.5 -181.5t29.5 -216.5q0 -106 -22.5 -199t-70.5 -162t-124 -108t-184 -39q-72 0 -122.5 15.5t-80.5 42.5l-84 -141l-74 45l90 151q-45 47 -86 145.5t-41 249.5z M254 487q0 -162 47 -266l338 604q-33 55 -147 56q-119 0 -178.5 -104.5t-59.5 -289.5zM350 147q27 -27 57.5 -40t84.5 -13q121 0 181 103.5t60 289.5q0 68 -6 130.5t-39 132.5z" />
<glyph unicode="&#xf9;" d="M156 279v696h139v-541q0 -63 2 -120.5t15.5 -101.5t43 -69.5t82.5 -25.5q70 0 121 46t85 115.5t51.5 149.5t17.5 145v402h139v-975h-139v225h-4q-10 -31 -27.5 -72.5t-51.5 -80.5t-88.5 -67t-135.5 -28q-63 0 -110.5 25t-78.5 66t-46 95t-15 116zM329 1419h181l86 -274 h-129z" />
<glyph unicode="&#xfa;" d="M156 279v696h139v-541q0 -63 2 -120.5t15.5 -101.5t43 -69.5t82.5 -25.5q70 0 121 46t85 115.5t51.5 149.5t17.5 145v402h139v-975h-139v225h-4q-10 -31 -27.5 -72.5t-51.5 -80.5t-88.5 -67t-135.5 -28q-63 0 -110.5 25t-78.5 66t-46 95t-15 116zM447 1145l86 274h180 l-137 -274h-129z" />
<glyph unicode="&#xfb;" d="M156 279v696h139v-541q0 -63 2 -120.5t15.5 -101.5t43 -69.5t82.5 -25.5q70 0 121 46t85 115.5t51.5 149.5t17.5 145v402h139v-975h-139v225h-4q-10 -31 -27.5 -72.5t-51.5 -80.5t-88.5 -67t-135.5 -28q-63 0 -110.5 25t-78.5 66t-46 95t-15 116zM256 1145l180 274h152 l180 -274h-125l-129 170l-133 -170h-125z" />
<glyph unicode="&#xfc;" d="M156 279v696h139v-541q0 -63 2 -120.5t15.5 -101.5t43 -69.5t82.5 -25.5q70 0 121 46t85 115.5t51.5 149.5t17.5 145v402h139v-975h-139v225h-4q-10 -31 -27.5 -72.5t-51.5 -80.5t-88.5 -67t-135.5 -28q-63 0 -110.5 25t-78.5 66t-46 95t-15 116zM250 1167v181h184v-181 h-184zM610 1167v181h185v-181h-185z" />
<glyph unicode="&#xfd;" horiz-adv-x="872" d="M12 975h150l284 -766h5l262 766h149l-471 -1370h-143l137 395zM371 1145l86 274h180l-137 -274h-129z" />
<glyph unicode="&#xfe;" horiz-adv-x="948" d="M137 -438v1851h139v-604h5q10 25 29.5 57.5t50 62t76.5 49t110 19.5q94 0 155.5 -43t98.5 -111.5t51 -156.5t14 -176q0 -137 -24.5 -237.5t-67.5 -166t-103.5 -97.5t-131.5 -32q-63 0 -107.5 18.5t-75 46.5t-49 59.5t-26.5 58.5h-5v-598h-139zM276 492q0 -68 12.5 -138.5 t40 -128t71.5 -94.5t106 -37q61 0 100 38t61.5 97.5t31 134t8.5 146.5q0 45 -5.5 108.5t-25 122t-60.5 99.5t-112 41q-57 0 -100.5 -38t-71 -96.5t-42 -127t-14.5 -127.5z" />
<glyph unicode="&#xff;" horiz-adv-x="872" d="M12 975h150l284 -766h5l262 766h149l-471 -1370h-143l137 395zM164 1167v181h184v-181h-184zM524 1167v181h185v-181h-185z" />
<glyph unicode="&#x152;" horiz-adv-x="1781" d="M104 709q0 135 21.5 265t78 232.5t155 166t249.5 63.5q121 0 216.5 -52.5t160.5 -169.5h4v199h721v-133h-561v-473h534v-133h-534v-541h582v-133h-742v193h-4q-29 -47 -60.5 -87t-75.5 -69t-102.5 -44.5t-138.5 -15.5q-152 0 -250 64.5t-154.5 168t-78 234.5t-21.5 265z M279 711q0 -96 12 -202t49 -194t106.5 -146t184.5 -58q117 0 186.5 58t108.5 146t51 193.5t12 202.5q0 96 -16.5 200.5t-56 191.5t-109.5 143.5t-176 56.5q-115 0 -184.5 -56.5t-106.5 -143.5t-49 -191.5t-12 -200.5z" />
<glyph unicode="&#x153;" horiz-adv-x="1554" d="M94 485q0 106 21.5 199.5t69.5 163.5t123 109.5t184 39.5q98 0 188 -43t137 -129q27 47 65 80t80 53.5t86 29.5t82 9q86 0 149.5 -32.5t105.5 -91t62.5 -138.5t20.5 -172v-49h-571v-57q0 -47 14.5 -109.5t54.5 -119t109.5 -95.5t179.5 -39q41 0 70 3t50.5 7.5t38 8.5 t34.5 8v-115q-47 -14 -101.5 -21.5t-123.5 -7.5q-55 0 -114.5 12.5t-112 37t-93.5 63.5t-61 94q-16 -35 -41 -70.5t-66 -66.5t-100.5 -50.5t-142.5 -19.5q-109 0 -184 39t-123 108t-69.5 162t-21.5 199zM254 487q0 -186 61.5 -289.5t186.5 -103.5q121 0 182 103.5t61 289.5 q0 184 -61 289t-182 105q-125 0 -186.5 -105t-61.5 -289zM907 631h402q0 33 -9.5 76t-31 81.5t-57 65.5t-87.5 27q-59 0 -99 -27t-64.5 -65.5t-37 -81.5t-16.5 -76z" />
<glyph unicode="&#x178;" d="M-10 1413h174l346 -600l352 600h174l-446 -762v-651h-160v651zM240 1605v181h184v-181h-184zM600 1605v181h185v-181h-185z" />
<glyph unicode="&#x2c6;" horiz-adv-x="614" d="M51 1145l180 274h152l180 -274h-125l-129 170l-133 -170h-125z" />
<glyph unicode="&#x2dc;" horiz-adv-x="614" d="M63 1145q0 31 5.5 71.5t17.5 83.5q16 51 48 64.5t46 13.5q31 0 65 -17.5t65.5 -37.5t61 -37.5t50.5 -17.5q16 0 24.5 10t12.5 25.5t5 32t1 28.5h86q0 -39 -4 -79t-16.5 -71.5t-36 -52t-62.5 -20.5q-35 0 -70.5 16.5t-68.5 35.5t-59.5 35.5t-40.5 16.5t-22.5 -14 t-13.5 -32.5t-6 -35t-1 -18.5h-87z" />
<glyph unicode="&#x2000;" horiz-adv-x="950" />
<glyph unicode="&#x2001;" horiz-adv-x="1900" />
<glyph unicode="&#x2002;" horiz-adv-x="950" />
<glyph unicode="&#x2003;" horiz-adv-x="1900" />
<glyph unicode="&#x2004;" horiz-adv-x="633" />
<glyph unicode="&#x2005;" horiz-adv-x="475" />
<glyph unicode="&#x2006;" horiz-adv-x="316" />
<glyph unicode="&#x2007;" horiz-adv-x="316" />
<glyph unicode="&#x2008;" horiz-adv-x="237" />
<glyph unicode="&#x2009;" horiz-adv-x="380" />
<glyph unicode="&#x200a;" horiz-adv-x="105" />
<glyph unicode="&#x2010;" horiz-adv-x="833" d="M106 440v140h623v-140h-623z" />
<glyph unicode="&#x2011;" horiz-adv-x="833" d="M106 440v140h623v-140h-623z" />
<glyph unicode="&#x2012;" horiz-adv-x="833" d="M106 440v140h623v-140h-623z" />
<glyph unicode="&#x2013;" d="M106 440v140h814v-140h-814z" />
<glyph unicode="&#x2014;" horiz-adv-x="1402" d="M106 440v140h1192v-140h-1192z" />
<glyph unicode="&#x2018;" horiz-adv-x="417" d="M102 973l70 440h135l-20 -440h-185z" />
<glyph unicode="&#x2019;" horiz-adv-x="417" d="M111 973l20 440h184l-67 -440h-137z" />
<glyph unicode="&#x201a;" horiz-adv-x="417" d="M111 -238l20 443h184l-67 -443h-137z" />
<glyph unicode="&#x201c;" horiz-adv-x="720" d="M100 973l68 440h137l-20 -440h-185zM406 973l67 440h137l-20 -440h-184z" />
<glyph unicode="&#x201d;" horiz-adv-x="720" d="M111 973l20 440h184l-67 -440h-137zM416 973l20 440h185l-68 -440h-137z" />
<glyph unicode="&#x201e;" horiz-adv-x="720" d="M111 -238l20 443h184l-67 -443h-137zM416 -238l20 443h185l-68 -443h-137z" />
<glyph unicode="&#x2022;" d="M141 737q0 76 29 144.5t80 119t117.5 80t144.5 29.5q76 0 143.5 -29.5t117.5 -80t80 -119t30 -144.5t-30 -143.5t-80 -117.5t-117.5 -78.5t-143.5 -28.5q-78 0 -144.5 28.5t-117.5 78.5t-80 118t-29 143z" />
<glyph unicode="&#x2026;" horiz-adv-x="1441" d="M147 0v190h185v-190h-185zM629 0v190h184v-190h-184zM1110 0v190h184v-190h-184z" />
<glyph unicode="&#x202f;" horiz-adv-x="380" />
<glyph unicode="&#x2039;" horiz-adv-x="454" d="M68 500l149 385h148l-127 -385l127 -379h-148z" />
<glyph unicode="&#x203a;" horiz-adv-x="454" d="M90 121l125 387l-125 377h148l149 -377l-149 -387h-148z" />
<glyph unicode="&#x205f;" horiz-adv-x="475" />
<glyph unicode="&#x2122;" horiz-adv-x="1251" d="M80 1327v86h387v-86h-150v-508h-88v508h-149zM537 819v594h161l101 -467h4l98 467h164v-594h-88v537h-4l-119 -537h-109l-116 537h-4v-537h-88z" />
<glyph unicode="&#xe000;" horiz-adv-x="972" d="M0 0v973h973v-973h-973z" />
</font>
</defs>
</svg>
